<svg xmlns="http://www.w3.org/2000/svg" xmlns:xlink="http://www.w3.org/1999/xlink" viewBox="0 0 1000 1000"><defs><style>.a,.b{fill:none;}.b{stroke:#fff;stroke-linecap:square;stroke-miterlimit:10;stroke-width:68px;}.c{clip-path:url(#a);}.d{clip-path:url(#b);}.e{clip-path:url(#c);}.f{clip-path:url(#d);}</style><clipPath id="a"><rect class="a" y="-120" width="433" height="417"/></clipPath><clipPath id="b"><rect class="a" x="-83" y="60" width="521" height="360"/></clipPath><clipPath id="c"><rect class="a" x="580" y="-120" width="569" height="1237"/></clipPath><clipPath id="d"><rect class="a" x="140" y="420" width="280" height="520"/></clipPath></defs><title>ability</title><path class="b" d="M140,940V420H420V860c0,40-40,80-80,80H320"/><path class="b" d="M460,300c-26.62-44.23-64.11-95.14-100-140"/><g class="c"><path class="b" d="M159,297c34.13-68.83,68-171.89,93-237"/></g><g class="d"><path class="b" d="M100,300c125.88-5.85,241-18,333-41"/></g><path class="b" d="M580,60V360c0,40,40,80,80,80H840c40,0,70-40,79-120"/><path class="b" d="M580,540V860c0,40,40,80,80,80H840c40,0,70-40,79-120"/><g class="e"><path class="b" d="M580,760c139-53.59,235.52-105.15,320-160"/><path class="b" d="M580,260c139-53.59,235.52-105.15,320-160"/></g><g class="f"><line class="b" x1="420" y1="740" x2="140" y2="740"/><line class="b" x1="420" y1="580" x2="140" y2="580"/></g></svg>