<svg xmlns="http://www.w3.org/2000/svg" xmlns:xlink="http://www.w3.org/1999/xlink" viewBox="0 0 1000 1000"><defs><style>.a,.b{fill:none;}.b{stroke:#fff;stroke-linecap:square;stroke-miterlimit:2;stroke-width:68px;}.c{clip-path:url(#a);}.d{clip-path:url(#b);}</style><clipPath id="a"><rect class="a" x="100" y="500" width="1073" height="656"/></clipPath><clipPath id="b"><path class="a" d="M0,340H1000V60H841c-194,57-501,80-701,80H0Z"/></clipPath></defs><title>accept</title><path class="b" d="M220,500H780C600,740,420,860,100,940"/><g class="c"><path class="b" d="M900,940C580,860,402,740,280,500"/></g><polyline class="b" points="100 480 100 340 900 340 900 480"/><path class="b" d="M140,140c200,0,507-23,701-80"/><g class="d"><line class="b" x1="700" y1="340" x2="790" y2="160"/><line class="b" x1="530" y1="340" x2="450" y2="125"/><line class="b" x1="310" y1="340" x2="230" y2="140"/></g></svg>