<svg xmlns="http://www.w3.org/2000/svg" xmlns:xlink="http://www.w3.org/1999/xlink" viewBox="0 0 1000 1000"><defs><style>.a,.c{fill:none;}.b{clip-path:url(#a);}.c{stroke:#000;stroke-linecap:square;stroke-miterlimit:2;stroke-width:68px;}.d{clip-path:url(#b);}.e{clip-path:url(#c);}.f{clip-path:url(#d);}</style><clipPath id="a"><path class="a" d="M140,500c252.77-11.8,441.47-30.7,645-57h334v663H-123V500Z"/></clipPath><clipPath id="b"><polygon class="a" points="-90 280 785 261 785 663 -90 682 -90 280"/></clipPath><clipPath id="c"><rect class="a" x="-168" y="160" width="1336" height="335"/></clipPath><clipPath id="d"><rect class="a" x="300.5" y="-118.5" width="400" height="279"/></clipPath></defs><title>outhouse</title><g class="b"><path class="c" d="M600,465V820q0,120,120,120h80c80,0,106-40,115-160"/><path class="c" d="M100,940c176-91,300-161,300-456"/></g><path class="c" d="M650,280c62,66,142,160,200,240"/><g class="d"><path class="c" d="M140,500c252.77-11.8,441.47-30.7,645-57"/></g><g class="e"><line class="c" x1="450" y1="160" x2="280" y2="495"/></g><line class="c" x1="100" y1="160" x2="900" y2="160"/><g class="f"><line class="c" x1="500" y1="60" x2="500" y2="160"/></g></svg>
