<svg xmlns="http://www.w3.org/2000/svg" xmlns:xlink="http://www.w3.org/1999/xlink" viewBox="0 0 1000 1000"><defs><style>.a,.b{fill:none;}.b{stroke:#000;stroke-linecap:square;stroke-miterlimit:2;stroke-width:68px;}.c{clip-path:url(#a);}</style><clipPath id="a"><polygon class="a" points="660 980 60 980 60 755.19 274.02 300 660 300 660 980"/></clipPath></defs><title>become</title><path class="b" d="M80,940C200,700,200,600,200,240H920"/><path class="b" d="M580,60c0,640,160,880,240,880,64,0,79-40.3,90-160"/><path class="b" d="M380,940C598,820,760,660,860,380"/><path class="b" d="M800,140c-24-27-54-59-80-80"/><g class="c"><path class="b" d="M199.59,458.58,460,460c-8,280-20,320-100,320-30,0-67,0-100-5"/></g></svg>