<svg version="1.2" baseProfile="tiny-ps" xmlns="http://www.w3.org/2000/svg" viewBox="0 0 512 512" width="512" height="512">
	<title>New Project</title>
	<style>
		tspan { white-space:pre }
		.shp0 { fill: #000 } 
	</style>
	<path id="å‰" fill-rule="evenodd" class="shp0" d="M126.8 31.79L163.71 13.34C178.75 31.11 191.06 50.93 200.63 72.81L161.66 89.21L126.8 31.79ZM303.17 95.37L350.34 19.49L397.5 33.84L352.39 95.37L485.69 95.37L485.69 132.28L28.36 132.28L28.36 95.37L303.17 95.37ZM418.01 423.49L418.01 156.89L456.98 156.89L456.98 433.75C456.98 454.25 453.56 468.61 446.72 476.81C441.25 483.65 428.95 487.07 409.81 487.07L350.34 480.91L342.13 439.9L403.66 448.1C413.23 448.1 418.01 439.9 418.01 423.49ZM57.07 173.3L245.75 173.3L245.75 437.85C245.75 470.66 228.66 487.07 194.48 487.07L153.46 482.96L145.26 444L192.43 448.1C203.36 448.1 208.83 441.27 208.83 427.59L208.83 380.43L93.99 380.43L93.99 491.17L57.07 491.17L57.07 173.3ZM93.99 210.21L93.99 259.43L208.83 259.43L208.83 210.21L93.99 210.21ZM93.99 294.29L93.99 343.51L208.83 343.51L208.83 294.29L93.99 294.29ZM313.42 405.04L313.42 183.55L352.39 183.55L352.39 405.04L313.42 405.04Z" />
</svg>