<svg xmlns="http://www.w3.org/2000/svg" xmlns:xlink="http://www.w3.org/1999/xlink" viewBox="0 0 1000 1000"><defs><style>.a,.b{fill:none;}.b{stroke:#000;stroke-linecap:square;stroke-miterlimit:2;stroke-width:68px;}.c{clip-path:url(#a);}.d{clip-path:url(#b);}.e{clip-path:url(#c);}</style><clipPath id="a"><rect class="a" x="220" y="-135" width="560" height="275"/></clipPath><clipPath id="b"><rect class="a" x="220" y="140" width="600" height="280"/></clipPath><clipPath id="c"><rect class="a" x="220" y="420" width="959" height="280"/></clipPath></defs><title>bird</title><path class="b" d="M220,420H820V140H220V700H900c-23,240-40,240-120,240H700"/><path class="b" d="M167,780c-20,69-44,115-83,160"/><path class="b" d="M321,780c13.21,62.25,16.17,100.07,19,160"/><path class="b" d="M500,780c20.8,49.92,30,80,40,120"/><path class="b" d="M680,780c11,19,24,52,34,80"/><g class="c"><line class="b" x1="460" y1="60" x2="420" y2="140"/></g><g class="d"><line class="b" x1="220" y1="280" x2="820" y2="280"/></g><g class="e"><line class="b" x1="920" y1="560" x2="220" y2="560"/></g></svg>