<svg xmlns="http://www.w3.org/2000/svg" xmlns:xlink="http://www.w3.org/1999/xlink" viewBox="0 0 1000 1000"><defs><style>.a,.c{fill:none;}.b{clip-path:url(#a);}.c{stroke:#000;stroke-linecap:square;stroke-miterlimit:2;stroke-width:68px;}.d{clip-path:url(#b);}.e{clip-path:url(#c);}</style><clipPath id="a"><path class="a" d="M180,760c84.38-42.19,167-111.6,214-180V500h606v638H0V760Z"/></clipPath><clipPath id="b"><rect class="a" x="303" y="-101" width="677" height="481"/></clipPath><clipPath id="c"><rect class="a" x="300" y="260" width="400" height="280"/></clipPath></defs><title>black-hole</title><g class="b"><path class="c" d="M820,940C580,915,400,800,260,660H740C606,797,420,909,180,940"/></g><path class="c" d="M180,760c84.38-42.19,167-111.6,214-180"/><rect class="c" x="300" y="260" width="400" height="280"/><path class="c" d="M180,300c80-80,131-160,160-240"/><g class="d"><line class="c" x1="780" y1="140" x2="303.4" y2="140"/></g><g class="e"><line class="c" x1="700" y1="400" x2="300" y2="400"/></g></svg>