<svg xmlns="http://www.w3.org/2000/svg" xmlns:xlink="http://www.w3.org/1999/xlink" viewBox="0 0 1000 1000"><defs><style>.a,.b{fill:none;}.b{stroke:#000;stroke-linecap:square;stroke-miterlimit:2;stroke-width:68px;}.c{clip-path:url(#a);}.d{clip-path:url(#b);}.e{clip-path:url(#c);}.f{clip-path:url(#d);}</style><clipPath id="a"><rect class="a" x="260" y="-131" width="480" height="271"/></clipPath><clipPath id="b"><rect class="a" x="-162" y="140" width="902" height="800"/></clipPath><clipPath id="c"><rect class="a" x="260" y="140" width="480" height="480"/></clipPath><clipPath id="d"><polygon class="a" points="0 634 0 -131 1000 -131 1000 1158 380 1158 380 634 0 634"/></clipPath></defs><title>somebody</title><path class="b" d="M140,940C420,837,681,684,880,406"/><g class="c"><line class="b" x1="480" y1="60" x2="440" y2="140"/></g><g class="d"><path class="b" d="M120,640c240-11,419.92-30.56,620-60"/></g><g class="e"><line class="b" x1="740" y1="460" x2="260" y2="460"/><line class="b" x1="740" y1="300" x2="260" y2="300"/></g><g class="f"><path class="b" d="M260,632V140H740V820q0,120-120,120H580"/></g></svg>
