<svg xmlns="http://www.w3.org/2000/svg" xmlns:xlink="http://www.w3.org/1999/xlink" viewBox="0 0 1000 1000"><defs><style>.a,.b{fill:none;}.b{stroke:#fff;stroke-linecap:square;stroke-miterlimit:2;stroke-width:68px;}.c{clip-path:url(#a);}.d{clip-path:url(#b);}.e{clip-path:url(#c);}</style><clipPath id="a"><rect class="a" x="180" y="220" width="640" height="180"/></clipPath><clipPath id="b"><rect class="a" x="340" y="400" width="320" height="704"/></clipPath><clipPath id="c"><rect class="a" x="20" y="-90" width="960" height="310"/></clipPath></defs><title>business</title><line class="b" x1="80" y1="220" x2="920" y2="220"/><line class="b" x1="80" y1="680" x2="920" y2="680"/><line class="b" x1="180" y1="540" x2="820" y2="540"/><line class="b" x1="120" y1="400" x2="880" y2="400"/><g class="c"><line class="b" x1="620" y1="400" x2="700" y2="220"/><line class="b" x1="380" y1="400" x2="300" y2="220"/></g><g class="d"><line class="b" x1="500" y1="940" x2="500" y2="400"/></g><g class="e"><line class="b" x1="580" y1="220" x2="580" y2="60"/><line class="b" x1="420" y1="220" x2="420" y2="60"/><line class="b" x1="715" y1="220" x2="795" y2="80"/><line class="b" x1="286" y1="220" x2="186" y2="80"/></g><path class="b" d="M920,910C640,831,500,680,500,680"/><path class="b" d="M80,910c278-77,420-230,420-230"/></svg>