<svg xmlns="http://www.w3.org/2000/svg" xmlns:xlink="http://www.w3.org/1999/xlink" viewBox="0 0 1000 1000"><defs><style>.a,.b{fill:none;}.b{stroke:#fff;stroke-linecap:square;stroke-miterlimit:2;stroke-width:68px;}.c{clip-path:url(#a);}.d{clip-path:url(#b);}</style><clipPath id="a"><rect class="a" x="460" y="160" width="687" height="486"/></clipPath><clipPath id="b"><rect class="a" x="240" y="380" width="520" height="280"/></clipPath></defs><title>ox</title><path class="b" d="M100,920c124.53-76,200-180,200-180"/><rect class="b" x="240" y="380" width="520" height="280"/><path class="b" d="M500,700V860c0,40-40,80-80,80H360"/><path class="b" d="M80,460C388,327,480,60,480,60"/><line class="b" x1="100" y1="160" x2="900" y2="160"/><path class="b" d="M760,367c60-52,100-107,100-107"/><path class="b" d="M240,367c-60-52-100-107-100-107"/><path class="b" d="M900,920C775.47,844,700,740,700,740"/><g class="c"><path class="b" d="M920,460C691.72,370.19,580,160,580,160"/></g><g class="d"><line class="b" x1="760" y1="520" x2="240" y2="520"/></g></svg>
