<svg xmlns="http://www.w3.org/2000/svg" xmlns:xlink="http://www.w3.org/1999/xlink" viewBox="0 0 1000 1000"><defs><style>.a,.b{fill:none;}.b{stroke:#000;stroke-linecap:square;stroke-miterlimit:2;stroke-width:68px;}.c{clip-path:url(#a);}</style><clipPath id="a"><rect class="a" x="340" y="-123" width="320" height="263"/></clipPath></defs><title>comfort</title><line class="b" x1="100" y1="660" x2="900" y2="660"/><line class="b" x1="500" y1="940" x2="500" y2="580"/><rect class="b" x="340" y="140" width="320" height="360"/><line class="b" x1="660" y1="320" x2="340" y2="320"/><path class="b" d="M760,240c48-40,80-70,120-120"/><path class="b" d="M750,390c72.14,31.79,119.71,58.57,170,90"/><path class="b" d="M100,480c59.61-29.77,113.11-62.69,150-89"/><path class="b" d="M240,240c-38.19-43.65-77.52-84.8-120-120"/><path class="b" d="M900,920C740,860,603,780,500,660"/><path class="b" d="M100,920c160-60,297-140,400-260"/><g class="c"><line class="b" x1="500" y1="60" x2="480" y2="140"/></g></svg>