<svg xmlns="http://www.w3.org/2000/svg" xmlns:xlink="http://www.w3.org/1999/xlink" viewBox="0 0 1000 1000"><defs><style>.a,.b{fill:none;}.b{stroke:#fff;stroke-linecap:square;stroke-miterlimit:2;stroke-width:68px;}.c{clip-path:url(#a);}.d{clip-path:url(#b);}.e{clip-path:url(#c);}.f{clip-path:url(#d);}</style><clipPath id="a"><polygon class="a" points="342 270 523 510 523 930 -117 930 -117 270 342 270"/></clipPath><clipPath id="b"><polygon class="a" points="500 510 500 310 100 310 100 30 900 30 900 510 500 510"/></clipPath><clipPath id="c"><rect class="a" x="420" y="336" width="676" height="614"/></clipPath><clipPath id="d"><rect class="a" x="673" y="150" width="355" height="510"/></clipPath></defs><title>coral</title><line class="b" x1="220" y1="830" x2="780" y2="830"/><g class="c"><path class="b" d="M100,790C300,612,379,350,379,350H120"/></g><path class="b" d="M500,370V630c0,40-40,80-80,80H380"/><g class="d"><path class="b" d="M260,170H740C636,316,500,390,500,390"/></g><g class="e"><path class="b" d="M900,790C652,608,580,336,580,336"/></g><g class="f"><path class="b" d="M673,540c98.89-83.81,187-210,187-210"/></g></svg>