<svg xmlns="http://www.w3.org/2000/svg" xmlns:xlink="http://www.w3.org/1999/xlink" viewBox="0 0 1000 1000"><defs><style>.a,.b{fill:none;}.b{stroke:#000;stroke-linecap:square;stroke-miterlimit:2;stroke-width:68px;}.c{clip-path:url(#a);}.d{clip-path:url(#b);}.e{clip-path:url(#c);}</style><clipPath id="a"><rect class="a" x="180" y="300" width="640" height="280"/></clipPath><clipPath id="b"><polygon class="a" points="1000 300 563 300 406 200 0 200 0 -71 1000 -71 1000 300"/></clipPath><clipPath id="c"><rect class="a" x="180" width="640" height="300"/></clipPath></defs><title>courage</title><path class="b" d="M120,720H860c-13,198-40,220-100,220-40,0-140-8-140-8"/><rect class="b" x="180" y="300" width="640" height="280"/><path class="b" d="M120,940c260-40,380-160,380-440V300"/><g class="c"><line class="b" x1="820" y1="440" x2="180" y2="440"/></g><g class="d"><path class="b" d="M180,100H780C654,190,500,260,500,260"/></g><g class="e"><path class="b" d="M560,300c-88.1-63.43-200-120-200-120"/></g></svg>