<svg xmlns="http://www.w3.org/2000/svg" xmlns:xlink="http://www.w3.org/1999/xlink" viewBox="0 0 1000 1000"><defs><style>.a,.b{fill:none;}.b{stroke:#000;stroke-linecap:square;stroke-miterlimit:2;stroke-width:68px;}.c{clip-path:url(#a);}.d{clip-path:url(#b);}.e{clip-path:url(#c);}.f{clip-path:url(#d);}</style><clipPath id="a"><rect class="a" x="20" y="580" width="1063" height="507"/></clipPath><clipPath id="b"><rect class="a" x="200" y="740" width="868" height="319"/></clipPath><clipPath id="c"><rect class="a" x="140" y="-84" width="720" height="664"/></clipPath><clipPath id="d"><rect class="a" x="280" y="140" width="440" height="440"/></clipPath></defs><title>crab-trap</title><line class="b" x1="100" y1="580" x2="900" y2="580"/><line class="b" x1="120" y1="140" x2="880" y2="140"/><g class="c"><path class="b" d="M320,800c80-39,120-100,120-220"/><path class="b" d="M620,580V700c0,60,20,80,80,80h80c60,0,72.93-19.41,80-80"/><line class="b" x1="200" y1="940" x2="200" y2="580"/></g><g class="d"><line class="b" x1="200" y1="900" x2="880" y2="900"/></g><g class="e"><line class="b" x1="280" y1="580" x2="280" y2="60"/><line class="b" x1="720" y1="580" x2="720" y2="60"/></g><g class="f"><line class="b" x1="720" y1="433" x2="280" y2="433"/><line class="b" x1="720" y1="287" x2="280" y2="287"/></g></svg>