<svg xmlns="http://www.w3.org/2000/svg" xmlns:xlink="http://www.w3.org/1999/xlink" viewBox="0 0 1000 1000"><defs><style>.a,.c{fill:none;}.b{clip-path:url(#a);}.c{stroke:#000;stroke-linecap:square;stroke-miterlimit:2;stroke-width:68px;}.d{clip-path:url(#b);}.e{clip-path:url(#c);}.f{clip-path:url(#d);}.g{clip-path:url(#e);}</style><clipPath id="a"><rect class="a" x="180" y="140" width="640" height="400"/></clipPath><clipPath id="b"><rect class="a" x="180" y="-129" width="640" height="269"/></clipPath><clipPath id="c"><rect class="a" x="500" y="428" width="360" height="352"/></clipPath><clipPath id="d"><rect class="a" x="500" y="580" width="353" height="360"/></clipPath><clipPath id="e"><rect class="a" x="-139" y="540" width="1295" height="610"/></clipPath></defs><title>demon</title><g class="b"><line class="c" x1="500" y1="140" x2="500" y2="540"/><line class="c" x1="820" y1="340" x2="180" y2="340"/></g><rect class="c" x="180" y="140" width="640" height="400"/><g class="d"><line class="c" x1="460" y1="60" x2="420" y2="140"/></g><line class="c" x1="814" y1="680" x2="874" y2="790"/><g class="e"><line class="c" x1="727" y1="620" x2="660" y2="779"/></g><g class="f"><line class="c" x1="620" y1="786" x2="853" y2="752"/></g><g class="g"><path class="c" d="M100,940C300,840,360,740,360,540"/><path class="c" d="M540,540V820q0,120,120,120H820c80,0,108-40,120-120"/></g></svg>