<svg xmlns="http://www.w3.org/2000/svg" xmlns:xlink="http://www.w3.org/1999/xlink" viewBox="0 0 1000 1000"><defs><style>.a,.b{fill:none;}.b{stroke:#fff;stroke-linecap:square;stroke-miterlimit:2;stroke-width:68px;}.c{clip-path:url(#a);}.d{clip-path:url(#b);}.e{clip-path:url(#c);}.f{clip-path:url(#d);}</style><clipPath id="a"><polygon class="a" points="20 380 20 20 380 20 380.84 251.55 220 380.67 20 380"/></clipPath><clipPath id="b"><path class="a" d="M920,460C580,280,500,80,500,80H-126V640H920Z"/></clipPath><clipPath id="c"><path class="a" d="M920,460C580,280,500,80,500,80V-101h596V460Z"/></clipPath><clipPath id="d"><rect class="a" x="-88.5" y="420.5" width="1245" height="708"/></clipPath></defs><title>departure</title><line class="b" x1="100" y1="640" x2="900" y2="640"/><line class="b" x1="300" y1="420" x2="700" y2="420"/><path class="b" d="M920,460C580,280,500,80,500,80H220"/><g class="c"><path class="b" d="M318,301.81C248.23,222.89,180,160,180,160"/></g><g class="d"><path class="b" d="M500,80S420,280,82,460"/></g><g class="e"><line class="b" x1="750" y1="354.47" x2="860" y2="220"/><line class="b" x1="619" y1="242" x2="720" y2="122"/></g><g class="f"><path class="b" d="M120,940C380,820,380,700,380,420"/><path class="b" d="M600,420V820q0,120,120,120h60c80,0,111.8-40.42,120-120"/></g></svg>