<svg xmlns="http://www.w3.org/2000/svg" xmlns:xlink="http://www.w3.org/1999/xlink" viewBox="0 0 1000 1000"><defs><style>.a,.b{fill:none;}.b{stroke:#000;stroke-linecap:square;stroke-miterlimit:2;stroke-width:68px;}.c{clip-path:url(#a);}.d{clip-path:url(#b);}.e{clip-path:url(#c);}.f{clip-path:url(#d);}</style><clipPath id="a"><rect class="a" x="160" y="140" width="640" height="180"/></clipPath><clipPath id="b"><rect class="a" x="180" y="460" width="600" height="300"/></clipPath><clipPath id="c"><rect class="a" x="320" y="460" width="756" height="645"/></clipPath><clipPath id="d"><rect class="a" x="320" y="-86" width="320" height="226"/></clipPath></defs><title>dragon</title><polyline class="b" points="180 820 180 460 780 460 780 760 180 760"/><line class="b" x1="120" y1="320" x2="840" y2="320"/><line class="b" x1="160" y1="140" x2="800" y2="140"/><g class="c"><line class="b" x1="600" y1="320" x2="680" y2="140"/><line class="b" x1="360" y1="320" x2="280" y2="140"/></g><g class="d"><line class="b" x1="780" y1="610" x2="180" y2="610"/></g><g class="e"><path class="b" d="M480,460V860c0,40,45,80,200,80s194-40.2,198-80l6-60"/></g><g class="f"><line class="b" x1="480" y1="60" x2="480" y2="140"/></g></svg>