<svg xmlns="http://www.w3.org/2000/svg" xmlns:xlink="http://www.w3.org/1999/xlink" viewBox="0 0 1000 1000"><defs><style>.a,.b{fill:none;}.b{stroke:#fff;stroke-linecap:square;stroke-miterlimit:2;stroke-width:68px;}.c{clip-path:url(#a);}.d{clip-path:url(#b);}.e{clip-path:url(#c);}.f{clip-path:url(#d);}.g{clip-path:url(#e);}</style><clipPath id="a"><polygon class="a" points="802.37 940 540 771.52 540 500 1000 500 1000 940 802.37 940"/></clipPath><clipPath id="b"><rect class="a" x="240" y="620" width="1020" height="568"/></clipPath><clipPath id="c"><rect class="a" x="-56" y="100" width="1036" height="827"/></clipPath><clipPath id="d"><rect class="a" x="240" y="340" width="520" height="280"/></clipPath><clipPath id="e"><rect class="a" x="240" width="520" height="340"/></clipPath></defs><title>eat</title><path class="b" d="M100,940c140-9,283.94-30,400-60"/><path class="b" d="M940,360C740,272,595,180,500,60,400,180,260,271,60,360"/><g class="c"><line class="b" x1="840" y1="678" x2="643" y2="837"/></g><g class="d"><path class="b" d="M940,940C700,900,560,820,460,620"/></g><g class="e"><polyline class="b" points="240 927 240 340 760 340 760 620 240 620"/></g><g class="f"><line class="b" x1="760" y1="480" x2="240" y2="480"/></g><g class="g"><line class="b" x1="500" y1="220" x2="500" y2="340"/></g></svg>