<svg xmlns="http://www.w3.org/2000/svg" xmlns:xlink="http://www.w3.org/1999/xlink" viewBox="0 0 1000 1000"><defs><style>.a,.b{fill:none;}.b{stroke:#000;stroke-linecap:square;stroke-miterlimit:2;stroke-width:68px;}.c{clip-path:url(#a);}</style><clipPath id="a"><rect class="a" x="-107" y="120" width="647" height="1041"/></clipPath></defs><title>ego</title><line class="b" x1="60" y1="380" x2="940" y2="380"/><path class="b" d="M80,660c123-18,300-59,420-98"/><path class="b" d="M80,160c101-12,269-40,380-100"/><path class="b" d="M600,60c0,640,160,880,240,880,60,0,86-40,100-160"/><path class="b" d="M420,940C620,820,749,666,840,490"/><path class="b" d="M860,220c-32-46-80-106-120-140"/><g class="c"><path class="b" d="M300,120V820q0,120-120,120H140"/></g></svg>