<svg xmlns="http://www.w3.org/2000/svg" xmlns:xlink="http://www.w3.org/1999/xlink" viewBox="0 0 1000 1000"><defs><style>.a,.b{fill:none;}.b{stroke:#000;stroke-linecap:square;stroke-miterlimit:2;stroke-width:68px;}.c{clip-path:url(#a);}.d{clip-path:url(#b);}.e{clip-path:url(#c);}</style><clipPath id="a"><path class="a" d="M240,680C340,579,400,440,400,440V340h666v734H180V680Z"/></clipPath><clipPath id="b"><rect class="a" x="60" y="370" width="760" height="530"/></clipPath><clipPath id="c"><rect class="a" x="340" y="520" width="747" height="546"/></clipPath></defs><title>employ</title><line class="b" x1="140" y1="100" x2="920" y2="100"/><path class="b" d="M80,920C180,740,180,590,180,230H860V370H180"/><g class="c"><polyline class="b" points="340 940 340 520 900 520"/></g><g class="d"><path class="b" d="M240,680C340,579,400,440,400,440"/><polyline class="b" points="630 900 630 520 680 440"/></g><g class="e"><line class="b" x1="340" y1="900" x2="920" y2="900"/><line class="b" x1="340" y1="773" x2="880" y2="773"/><line class="b" x1="340" y1="647" x2="880" y2="647"/></g></svg>