<svg xmlns="http://www.w3.org/2000/svg" xmlns:xlink="http://www.w3.org/1999/xlink" viewBox="0 0 1000 1000"><defs><style>.a,.b{fill:none;}.b{stroke:#fff;stroke-linecap:square;stroke-miterlimit:2;stroke-width:68px;}.c{clip-path:url(#a);}.d{clip-path:url(#b);}.e{clip-path:url(#c);}</style><clipPath id="a"><rect class="a" x="183" y="660" width="1030" height="279"/></clipPath><clipPath id="b"><rect class="a" x="300" y="320" width="398" height="480"/></clipPath><clipPath id="c"><rect class="a" x="246" y="20" width="855" height="280"/></clipPath></defs><title>every</title><path class="b" d="M160,880c80.51-261.37,100-560,100-560H800c-30,560-60,620-139,619-40-.51-101-9-101-9"/><line class="b" x1="900" y1="560" x2="120" y2="560"/><path class="b" d="M100,340C232,220,300,60,300,60"/><g class="c"><line class="b" x1="880" y1="800" x2="183" y2="800"/></g><g class="d"><path class="b" d="M460,800c45.83-218.86,60-480,60-480"/></g><g class="e"><line class="b" x1="900" y1="160" x2="246" y2="160"/></g></svg>