<svg xmlns="http://www.w3.org/2000/svg" xmlns:xlink="http://www.w3.org/1999/xlink" viewBox="0 0 1000 1000"><defs><style>.a,.b{fill:none;}.b{stroke:#fff;stroke-linecap:square;stroke-miterlimit:2;stroke-width:68px;}.c{clip-path:url(#a);}.d{clip-path:url(#b);}.e{clip-path:url(#c);}.f{clip-path:url(#d);}.g{clip-path:url(#e);}</style><clipPath id="a"><rect class="a" x="180" y="700" width="320" height="231"/></clipPath><clipPath id="b"><rect class="a" x="380" y="700" width="769" height="405"/></clipPath><clipPath id="c"><polygon class="a" points="980 940 795.68 940 620 838.57 620 580 980 580 980 940"/></clipPath><clipPath id="d"><rect class="a" x="154.5" y="539.5" width="942" height="320"/></clipPath><clipPath id="e"><rect class="a" x="180.5" y="-105.5" width="679" height="446"/></clipPath></defs><title>farming</title><path class="b" d="M80,940c80-160,80-240,80-480H900"/><line class="b" x1="280" y1="580" x2="840" y2="580"/><path class="b" d="M220,940c159.9-5.51,320-40,320-40"/><rect class="b" x="180" y="100" width="680" height="240"/><g class="c"><line class="b" x1="340" y1="700" x2="340" y2="931"/></g><g class="d"><path class="b" d="M900,940C580,900,520,700,520,700"/></g><g class="e"><line class="b" x1="680" y1="874" x2="800" y2="780"/></g><g class="f"><line class="b" x1="154" y1="700" x2="900" y2="700"/></g><g class="g"><line class="b" x1="860" y1="220" x2="180" y2="220"/><line class="b" x1="407" y1="340" x2="407" y2="60"/><line class="b" x1="633" y1="340" x2="633" y2="60"/></g></svg>