<svg xmlns="http://www.w3.org/2000/svg" viewBox="0 0 1000 1000"><defs><style>.a{fill:none;stroke:#fff;stroke-linecap:square;stroke-miterlimit:2;stroke-width:68px;}</style></defs><title>feeling</title><path class="a" d="M80,940c46.66-48.33,95-120,113-200"/><path class="a" d="M80,660c70-120,80-220,80-500H920"/><path class="a" d="M620,60c14,440,160,580,240,580,51,0,71-40,80-120"/><path class="a" d="M580,620c99-80,180-169,260-340"/><polygon class="a" points="280 580 281 410 520 410 520 580 280 580"/><line class="a" x1="260" y1="290" x2="540" y2="290"/><path class="a" d="M900,900c-21-40-60-108-98-160"/><path class="a" d="M580,800c-40-45-77.64-79.88-120-109"/><path class="a" d="M340,700V860c0,40,40,80,80,80H640c40,0,68-40,73-120"/><line class="a" x1="780" y1="60" x2="840" y2="100"/></svg>