<svg xmlns="http://www.w3.org/2000/svg" xmlns:xlink="http://www.w3.org/1999/xlink" viewBox="0 0 1000 1000"><defs><style>.a,.b{fill:none;}.b{stroke:#000;stroke-linecap:square;stroke-miterlimit:2;stroke-width:68px;}.c{clip-path:url(#a);}.d{clip-path:url(#b);}</style><clipPath id="a"><polygon class="a" points="821 701 220 701 220 259 444 -34 821 -34 821 701"/></clipPath><clipPath id="b"><rect class="a" x="220.5" y="300.5" width="600" height="400"/></clipPath></defs><title>fish</title><rect class="b" x="220" y="300" width="600" height="400"/><path class="b" d="M100,340C220,260,314,152,363,60"/><path class="b" d="M220,780c-33.24,66.48-76.53,122.08-120,160"/><path class="b" d="M388,780c9.66,58.88,16.52,112.13,20,160"/><path class="b" d="M591,780c26.22,55.4,42.36,104,55,160"/><path class="b" d="M798,780c46.73,56.08,86.83,113.07,114,160"/><g class="c"><path class="b" d="M520,700V300c77-65,115-111,155-160H311"/></g><g class="d"><line class="b" x1="820" y1="500" x2="220" y2="500"/></g></svg>