<svg xmlns="http://www.w3.org/2000/svg" xmlns:xlink="http://www.w3.org/1999/xlink" viewBox="0 0 1000 1000"><defs><style>.a,.b{fill:none;}.b{stroke:#000;stroke-linecap:square;stroke-miterlimit:2;stroke-width:68px;}.c{clip-path:url(#a);}.d{clip-path:url(#b);}</style><clipPath id="a"><rect class="a" x="-98" y="250" width="578" height="879"/></clipPath><clipPath id="b"><rect class="a" x="300" y="100" width="360" height="1029"/></clipPath></defs><title>fly</title><path class="b" d="M100,480H680c1,280,109,458,202,458,24,0,52.7-32.31,58-78"/><path class="b" d="M904,773c-30.19-27.45-57.26-46.67-92-67"/><path class="b" d="M783,643c23-22,51.8-53.58,68-76"/><path class="b" d="M100,100H680c2,240,125,386,193,386,37,0,59-29,67-86"/><path class="b" d="M899,300c-30.19-27.45-57.26-46.67-92-67"/><path class="b" d="M778,170c23-22,51.8-53.58,68-76"/><path class="b" d="M100,321c80-21,181.65-71.44,263-126"/><g class="c"><path class="b" d="M100,940c63.51-76.21,160-200,160-520V256"/></g><g class="d"><line class="b" x1="480" y1="940" x2="480" y2="100"/></g></svg>