<svg xmlns="http://www.w3.org/2000/svg" xmlns:xlink="http://www.w3.org/1999/xlink" viewBox="0 0 1000 1000"><defs><style>.a,.b{fill:none;}.b{stroke:#fff;stroke-linecap:square;stroke-miterlimit:2;stroke-width:68px;}.c{clip-path:url(#a);}</style><clipPath id="a"><rect class="a" x="-147" y="340" width="727" height="800"/></clipPath></defs><title>football</title><line class="b" x1="180" y1="340" x2="820" y2="340"/><path class="b" d="M900,300c-40-48-80-97-120-138"/><path class="b" d="M820,60c-160,40-400,61-600,60-32,82-71,145-120,197"/><path class="b" d="M520,260c-12-24.08-33.32-59.16-49-80"/><line class="b" x1="100" y1="500" x2="900" y2="500"/><path class="b" d="M260,940c200-40,400-140,560-300H334C463.11,800,700,900,900,940"/><g class="c"><path class="b" d="M100,940C300,780,380,620,380,340"/></g></svg>