<svg xmlns="http://www.w3.org/2000/svg" xmlns:xlink="http://www.w3.org/1999/xlink" viewBox="0 0 1000 1000"><defs><style>.a,.b{fill:none;}.b{stroke:#000;stroke-linecap:square;stroke-miterlimit:2;stroke-width:68px;}.c{clip-path:url(#a);}.d{clip-path:url(#b);}.e{clip-path:url(#c);}</style><clipPath id="a"><rect class="a" x="-96" y="340" width="1197" height="520"/></clipPath><clipPath id="b"><rect class="a" x="240" y="640" width="520" height="396"/></clipPath><clipPath id="c"><rect class="a" x="340" y="-99" width="320" height="259"/></clipPath></defs><title>form</title><polyline class="b" points="100 300 100 160 900 160 900 300"/><path class="b" d="M880,440C743,382,640,260,640,260"/><polyline class="b" points="240 940 240 640 760 640 760 940"/><path class="b" d="M120,440c137-58,240-180,240-180"/><g class="c"><path class="b" d="M80,700C341,592,500,345,500,345S659,592,920,700"/></g><g class="d"><line class="b" x1="760" y1="880" x2="240" y2="880"/></g><g class="e"><line class="b" x1="500" y1="60" x2="500" y2="160"/></g></svg>