<svg xmlns="http://www.w3.org/2000/svg" xmlns:xlink="http://www.w3.org/1999/xlink" viewBox="0 0 1000 1000"><defs><style>.a,.c{fill:none;}.b{clip-path:url(#a);}.c{stroke:#fff;stroke-linecap:square;stroke-miterlimit:2;stroke-width:68px;}.d{clip-path:url(#b);}.e{clip-path:url(#c);}</style><clipPath id="a"><path class="a" d="M140,760c204.59-92.53,300-240,300-240h647v560H-105V760Z"/></clipPath><clipPath id="b"><rect class="a" x="-41" y="320" width="1085" height="331"/></clipPath><clipPath id="c"><rect class="a" x="340" y="-86" width="320" height="406"/></clipPath></defs><title>frostbite</title><g class="b"><path class="c" d="M100,940c400-40,680-320,680-320H260S502,900,900,940"/></g><path class="c" d="M140,760c204.59-92.53,300-240,300-240"/><g class="d"><path class="c" d="M600,320V420c0,61,39,80,140,80,120,0,153.65-16.53,160-80"/><path class="c" d="M100,560c248-42,300-240,300-240"/></g><line class="c" x1="100" y1="320" x2="900" y2="320"/><g class="e"><line class="c" x1="500" y1="60" x2="500" y2="320"/></g><line class="c" x1="180" y1="160" x2="820" y2="160"/></svg>