<svg xmlns="http://www.w3.org/2000/svg" xmlns:xlink="http://www.w3.org/1999/xlink" viewBox="0 0 1000 1000"><defs><style>.a,.b{fill:none;}.b{stroke:#000;stroke-linecap:square;stroke-miterlimit:2;stroke-width:68px;}.c{clip-path:url(#a);}.d{clip-path:url(#b);}.e{clip-path:url(#c);}</style><clipPath id="a"><path class="a" d="M100,500c121.34-65.59,231.76-156.76,320-263V0h720V860H-140V500Z"/></clipPath><clipPath id="b"><rect class="a" x="300" y="-117" width="400" height="277"/></clipPath><clipPath id="c"><rect class="a" x="240" y="680" width="520" height="379"/></clipPath></defs><title>guest</title><polyline class="b" points="100 300 100 160 900 160 900 300"/><path class="b" d="M100,500c121.34-65.59,231.76-156.76,320-263"/><polyline class="b" points="240 940 240 680 760 680 760 940"/><g class="c"><path class="b" d="M940,680C620,600,441,500,260,300H740C559,500,380,595,60,680"/></g><g class="d"><line class="b" x1="500" y1="60" x2="500" y2="160"/></g><g class="e"><line class="b" x1="760" y1="880" x2="240" y2="880"/></g></svg>