<svg xmlns="http://www.w3.org/2000/svg" xmlns:xlink="http://www.w3.org/1999/xlink" viewBox="0 0 1000 1000"><defs><style>.a,.b{fill:none;}.b{stroke:#fff;stroke-linecap:square;stroke-miterlimit:2;stroke-width:68px;}.c{clip-path:url(#a);}.d{clip-path:url(#b);}.e{clip-path:url(#c);}</style><clipPath id="a"><rect class="a" x="500" y="100" width="280" height="300"/></clipPath><clipPath id="b"><rect class="a" x="310" y="620" width="380" height="280"/></clipPath><clipPath id="c"><rect class="a" x="310" y="400" width="380" height="360"/></clipPath></defs><title>hill</title><path class="b" d="M140,940V100H860V860c0,40-40,80-80,80H700"/><line class="b" x1="310" y1="820" x2="310" y2="540"/><line class="b" x1="690" y1="800" x2="690" y2="540"/><line class="b" x1="240" y1="400" x2="760" y2="400"/><path class="b" d="M400,320c-19.9-48-19.85-47.94-60-120"/><g class="c"><path class="b" d="M670,200c-27.91,80.39-100,200-100,200"/></g><g class="d"><line class="b" x1="310" y1="760" x2="710" y2="760"/></g><g class="e"><line class="b" x1="500" y1="760" x2="500" y2="400"/></g></svg>