<svg xmlns="http://www.w3.org/2000/svg" xmlns:xlink="http://www.w3.org/1999/xlink" viewBox="0 0 1000 1000"><defs><style>.a,.b{fill:none;}.b{stroke:#fff;stroke-linecap:square;stroke-miterlimit:2;stroke-width:68px;}.c{clip-path:url(#a);}</style><clipPath id="a"><rect class="a" x="179.5" y="100.5" width="934" height="520"/></clipPath></defs><title>horse</title><path class="b" d="M860,100H180V620H900c-18,280-40,320-120,320H700"/><path class="b" d="M180,700C147,802,120,856,60,940"/><path class="b" d="M331,700c13,80,25,156,31,240"/><path class="b" d="M494,700c29,80,46,134,62,200"/><path class="b" d="M660,700c30,57,53,112,71,160"/><g class="c"><line class="b" x1="540" y1="100" x2="540" y2="620"/><line class="b" x1="820" y1="447" x2="180" y2="447"/><line class="b" x1="820" y1="273" x2="180" y2="273"/></g></svg>