<svg xmlns="http://www.w3.org/2000/svg" xmlns:xlink="http://www.w3.org/1999/xlink" viewBox="0 0 1000 1000"><defs><style>.a,.b{fill:none;}.b{stroke:#fff;stroke-linecap:square;stroke-miterlimit:2;stroke-width:68px;}.c{clip-path:url(#a);}.d{clip-path:url(#b);}.e{clip-path:url(#c);}.f{clip-path:url(#d);}.g{clip-path:url(#e);}</style><clipPath id="a"><rect class="a" x="140" y="100" width="260" height="497"/></clipPath><clipPath id="b"><rect class="a" x="460" y="160" width="520" height="320"/></clipPath><clipPath id="c"><rect class="a" x="540" y="480" width="360" height="636"/></clipPath><clipPath id="d"><rect class="a" x="540" y="-117" width="360" height="277"/></clipPath><clipPath id="e"><rect class="a" x="200" y="580" width="220" height="509"/></clipPath></defs><title>propaganda</title><path class="b" d="M60,820c80-200,80-360,80-720H400V380"/><g class="c"><line class="b" x1="400" y1="380" x2="137.74" y2="380"/></g><polyline class="b" points="200 940 200 580 420 580 420 940"/><line class="b" x1="520" y1="480" x2="920" y2="480"/><line class="b" x1="540" y1="700" x2="900" y2="700"/><line class="b" x1="540" y1="160" x2="900" y2="160"/><g class="d"><path class="b" d="M631,380c-18-56-43-120-43-120"/><path class="b" d="M852,260c-26,97-78,220-78,220"/></g><g class="e"><line class="b" x1="720" y1="940" x2="720" y2="480"/></g><g class="f"><line class="b" x1="720" y1="60" x2="720" y2="160"/></g><g class="g"><line class="b" x1="420" y1="880" x2="200" y2="880"/></g></svg>
