<svg xmlns="http://www.w3.org/2000/svg" xmlns:xlink="http://www.w3.org/1999/xlink" viewBox="0 0 1000 1000"><defs><style>.a,.b{fill:none;}.b{stroke:#000;stroke-linecap:square;stroke-miterlimit:2;stroke-width:68px;}.c{clip-path:url(#a);}.d{clip-path:url(#b);}.e{clip-path:url(#c);}.f{clip-path:url(#d);}</style><clipPath id="a"><rect class="a" x="620" y="260" width="370" height="440"/></clipPath><clipPath id="b"><rect class="a" x="-90" y="300" width="1177" height="778"/></clipPath><clipPath id="c"><polygon class="a" points="620 1078 -106 1078 -106 381 410.28 381.39 620 844.17 620 1078"/></clipPath><clipPath id="d"><rect class="a" x="140" y="391" width="560" height="687"/></clipPath></defs><title>house</title><polyline class="b" points="100 280 100 160 900 160 900 280"/><line class="b" x1="500" y1="60" x2="500" y2="160"/><line class="b" x1="220" y1="300" x2="780" y2="300"/><g class="c"><path class="b" d="M635,571c112.83-87.76,185-171,185-171"/></g><g class="d"><path class="b" d="M140,500c240-62,380-200,380-200"/><path class="b" d="M890,880C585,671,560,300,560,300"/></g><g class="e"><path class="b" d="M100,900c230-80,440-231.3,440-231.3"/><path class="b" d="M120,700c179-61,354.15-178.09,354.15-178.09"/></g><g class="f"><path class="b" d="M397,391C514,543,561,700,561,780c0,114-61,160-121,160-41,0-100-8-100-8"/></g></svg>