<svg xmlns="http://www.w3.org/2000/svg" xmlns:xlink="http://www.w3.org/1999/xlink" viewBox="0 0 1000 1000"><defs><style>.a,.b{fill:none;}.b{stroke:#fff;stroke-linecap:square;stroke-miterlimit:2;stroke-width:68px;}.c{clip-path:url(#a);}.d{clip-path:url(#b);}.e{clip-path:url(#c);}</style><clipPath id="a"><rect class="a" x="140" y="140" width="720" height="160"/></clipPath><clipPath id="b"><rect class="a" x="140" y="-104" width="720" height="244"/></clipPath><clipPath id="c"><rect class="a" x="220.5" y="420.5" width="560" height="240"/></clipPath></defs><title>idea</title><rect class="b" x="220" y="420" width="560" height="240"/><line class="b" x1="100" y1="300" x2="900" y2="300"/><line class="b" x1="140" y1="140" x2="860" y2="140"/><g class="c"><line class="b" x1="700" y1="140" x2="620" y2="300"/><line class="b" x1="300" y1="140" x2="380" y2="300"/></g><g class="d"><line class="b" x1="500" y1="60" x2="500" y2="140"/></g><path class="b" d="M100,940c40-52,72-112,90-160"/><path class="b" d="M900,940c-20.52-41.89-64-112-98-160"/><path class="b" d="M320,740v80q0,120,120,120H580q120,0,120-120V800"/><path class="b" d="M561,830c-18-21.82-52.44-56.16-81-80"/><g class="e"><line class="b" x1="780" y1="540" x2="220" y2="540"/></g></svg>