<svg xmlns="http://www.w3.org/2000/svg" xmlns:xlink="http://www.w3.org/1999/xlink" viewBox="0 0 1000 1000"><defs><style>.a,.b{fill:none;}.b{stroke:#fff;stroke-linecap:square;stroke-miterlimit:2;stroke-width:68px;}.c{clip-path:url(#a);}.d{clip-path:url(#b);}.e{clip-path:url(#c);}.f{clip-path:url(#d);}</style><clipPath id="a"><rect class="a" x="60" y="140" width="440" height="200"/></clipPath><clipPath id="b"><rect class="a" x="110" y="-78" width="340" height="218"/></clipPath><clipPath id="c"><rect class="a" x="140" y="460" width="280" height="480"/></clipPath><clipPath id="d"><rect class="a" x="580" width="498" height="1000"/></clipPath></defs><title>imperial</title><path class="b" d="M580,60V260H900V380H580V860c0,40,20,80,180,80s173.85-40.48,180-80"/><path class="b" d="M140,940V460H420V860c0,61-22,80-80,80H300"/><line class="b" x1="100" y1="340" x2="460" y2="340"/><line class="b" x1="110" y1="140" x2="450" y2="140"/><g class="c"><line class="b" x1="340" y1="340" x2="400" y2="140"/><line class="b" x1="220" y1="340" x2="160" y2="140"/></g><g class="d"><line class="b" x1="280" y1="140" x2="280" y2="60"/></g><g class="e"><line class="b" x1="420" y1="760" x2="140" y2="760"/><line class="b" x1="420" y1="610" x2="140" y2="610"/></g><g class="f"><line class="b" x1="580" y1="780" x2="900" y2="780"/><line class="b" x1="580" y1="647" x2="900" y2="647"/><line class="b" x1="580" y1="513" x2="900" y2="513"/><line class="b" x1="580" y1="140" x2="900" y2="140"/></g></svg>