<svg xmlns="http://www.w3.org/2000/svg" xmlns:xlink="http://www.w3.org/1999/xlink" viewBox="0 0 1000 1000"><defs><style>.a,.c{fill:none;}.b{clip-path:url(#a);}.c{stroke:#000;stroke-linecap:square;stroke-miterlimit:2;stroke-width:68px;}.d{clip-path:url(#b);}</style><clipPath id="a"><polygon class="a" points="780 1092 220 1086 220 614 780 620 780 1092"/></clipPath><clipPath id="b"><path class="a" d="M122,360C236.16,282.77,342,180,422,60l-2-176h754V860H-189V360Z"/></clipPath></defs><title>kiss</title><g class="b"><line class="c" x1="780" y1="880" x2="220" y2="880"/></g><polyline class="c" points="220 940 220 580 780 580 780 940"/><path class="c" d="M420,60C340,180,234.16,282.77,120,360"/><g class="d"><path class="c" d="M900,580C540,460,460,378,309,199"/><path class="c" d="M361,140H740C540,380,462,460,100,580"/></g></svg>