<svg xmlns="http://www.w3.org/2000/svg" xmlns:xlink="http://www.w3.org/1999/xlink" viewBox="0 0 1000 1000"><defs><style>.a,.b{fill:none;}.b{stroke:#000;stroke-linecap:square;stroke-miterlimit:2;stroke-width:68px;}.c{clip-path:url(#a);}.d{clip-path:url(#b);}.e{clip-path:url(#c);}.f{clip-path:url(#d);}</style><clipPath id="a"><rect class="a" y="440" width="1273" height="739"/></clipPath><clipPath id="b"><rect class="a" x="180" y="100" width="1127" height="709"/></clipPath><clipPath id="c"><polygon class="a" points="1000 860 764.07 860 618.16 693.82 620 380 1000 380 1000 860"/></clipPath><clipPath id="d"><rect class="a" x="100" y="440" width="520" height="476"/></clipPath></defs><title>superman</title><path class="b" d="M60,940c80-120,120-280,120-560V100H940"/><line class="b" x1="300" y1="270" x2="880" y2="270"/><path class="b" d="M220,940c159.44-25.73,276-52,380-94"/><g class="c"><path class="b" d="M940,940C740,860,580,720,540,440"/></g><g class="d"><line class="b" x1="940" y1="440" x2="179" y2="440"/></g><g class="e"><path class="b" d="M860,580c-65,80-124.9,135-188.95,174.5"/></g><g class="f"><line class="b" x1="360" y1="440" x2="360" y2="915"/></g></svg>
