<svg xmlns="http://www.w3.org/2000/svg" xmlns:xlink="http://www.w3.org/1999/xlink" viewBox="0 0 1000 1000"><defs><style>.a,.b{fill:none;}.b{stroke:#fff;stroke-linecap:square;stroke-miterlimit:2;stroke-width:68px;}.c{clip-path:url(#a);}.d{clip-path:url(#b);}.e{clip-path:url(#c);}.f{clip-path:url(#d);}</style><clipPath id="a"><rect class="a" x="140" y="110" width="560" height="245"/></clipPath><clipPath id="b"><polygon class="a" points="60 580 60 140 580 140 581.3 380 404.72 580 60 580"/></clipPath><clipPath id="c"><rect class="a" x="300" y="100" width="560" height="472"/></clipPath><clipPath id="d"><rect class="a" x="-141" y="340" width="1021" height="440"/></clipPath></defs><title>lineage</title><path class="b" d="M140,140c354.88-9.36,680-80,680-80"/><path class="b" d="M921,620C855.3,512.74,768,420,768,420"/><path class="b" d="M900,900C794.4,827.77,700,700,700,700"/><path class="b" d="M100,900c128-80,212-200,212-200"/><line class="b" x1="500" y1="940" x2="500" y2="567.91"/><g class="c"><path class="b" d="M317,355c96-102,203-245,203-245"/></g><g class="d"><path class="b" d="M478,497C365.68,385.31,247,300,247,300"/></g><g class="e"><path class="b" d="M700,247C595,393,400,572,400,572"/></g><g class="f"><path class="b" d="M100,580c399.92-7.94,780-30,780-30"/></g></svg>