<svg xmlns="http://www.w3.org/2000/svg" xmlns:xlink="http://www.w3.org/1999/xlink" viewBox="0 0 1000 1000"><defs><style>.a,.b{fill:none;}.b{stroke:#000;stroke-linecap:square;stroke-miterlimit:2;stroke-width:68px;}.c{clip-path:url(#a);}.d{clip-path:url(#b);}.e{clip-path:url(#c);}.f{clip-path:url(#d);}</style><clipPath id="a"><rect class="a" x="60" y="540" width="1187" height="646"/></clipPath><clipPath id="b"><rect class="a" x="20" y="-115" width="1067" height="1023"/></clipPath><clipPath id="c"><polygon class="a" points="540 460 940 460 940 900 770.5 900 540 711.2 540 460"/></clipPath><clipPath id="d"><rect class="a" x="260" y="100" width="740" height="440"/></clipPath></defs><title>long</title><line class="b" x1="60" y1="540" x2="940" y2="540"/><path class="b" d="M100,940c158.52-27,246.74-49.38,380-111"/><g class="c"><path class="b" d="M940,940C700,860,521,740,440,540"/></g><g class="d"><polyline class="b" points="860 100 260 100 260 908"/></g><g class="e"><line class="b" x1="780" y1="640" x2="623.93" y2="780"/></g><g class="f"><line class="b" x1="820" y1="393" x2="260" y2="393"/><line class="b" x1="820" y1="247" x2="260" y2="247"/></g></svg>