<svg xmlns="http://www.w3.org/2000/svg" xmlns:xlink="http://www.w3.org/1999/xlink" viewBox="0 0 1000 1000"><defs><style>.a,.b{fill:none;}.b{stroke:#000;stroke-linecap:square;stroke-miterlimit:2;stroke-width:68px;}.c{clip-path:url(#a);}.d{clip-path:url(#b);}</style><clipPath id="a"><polygon class="a" points="420 660 418.98 470 515.21 100 900 100 900 660 420 660"/></clipPath><clipPath id="b"><polygon class="a" points="980 980 420 980 418.98 790 525.5 380.43 980 381 980 980"/></clipPath></defs><title>meat</title><path class="b" d="M100,940V200H900V823.16Q900,940,780,940H700"/><path class="b" d="M240,500C420,402,495,300,505,60"/><g class="c"><path class="b" d="M760,500c-91.91-35.39-220-120-276-280"/></g><path class="b" d="M240,790c132-57,249.45-151,260-310"/><g class="d"><path class="b" d="M757,780c-92.07-35-191-80-269-240"/></g></svg>