<svg xmlns="http://www.w3.org/2000/svg" xmlns:xlink="http://www.w3.org/1999/xlink" viewBox="0 0 1000 1000"><defs><style>.a,.b{fill:none;}.b{stroke:#fff;stroke-linecap:square;stroke-miterlimit:2;stroke-width:68px;}.c{clip-path:url(#a);}.d{clip-path:url(#b);}.e{clip-path:url(#c);}</style><clipPath id="a"><polygon class="a" points="-90 700 785 681 785 1083 -90 1102 -90 700"/></clipPath><clipPath id="b"><rect class="a" x="-168" y="580" width="1336" height="335"/></clipPath><clipPath id="c"><rect class="a" x="-228" y="40" width="1455" height="960"/></clipPath></defs><title>meet</title><path class="b" d="M650,700c62,66,142,160,200,240"/><g class="c"><path class="b" d="M140,920c252.77-11.8,441.47-30.7,645-57"/></g><g class="d"><line class="b" x1="450" y1="580" x2="280" y2="915"/></g><line class="b" x1="100" y1="580" x2="900" y2="580"/><line class="b" x1="280" y1="390" x2="720" y2="390"/><g class="e"><path class="b" d="M940,420C740,321,630,215,500,60,370,215,260,320,60,420"/></g></svg>