<svg xmlns="http://www.w3.org/2000/svg" xmlns:xlink="http://www.w3.org/1999/xlink" viewBox="0 0 1000 1000"><defs><style>.a,.b{fill:none;}.b{stroke:#fff;stroke-linecap:square;stroke-miterlimit:2;stroke-width:68px;}.c{clip-path:url(#a);}.d{clip-path:url(#b);}.e{clip-path:url(#c);}.f{clip-path:url(#d);}</style><clipPath id="a"><rect class="a" x="-90" y="700" width="917" height="402"/></clipPath><clipPath id="b"><rect class="a" x="100" y="220" width="760" height="690"/></clipPath><clipPath id="c"><polygon class="a" points="0 780 0 220 580 220 581.5 569.47 388.65 780 0 780"/></clipPath><clipPath id="d"><polygon class="a" points="180 -139 178.48 401.86 396.02 580 660 580 660 -139 180 -139"/></clipPath></defs><title>mysterious</title><path class="b" d="M890,940C819,811,710,660,710,660"/><line class="b" x1="100" y1="200" x2="900" y2="200"/><g class="c"><path class="b" d="M100,920c383-21,727-86,727-86"/></g><g class="d"><path class="b" d="M240,910S500,700,724,380"/></g><g class="e"><path class="b" d="M483,677C341,528,180,400,180,400"/></g><g class="f"><path class="b" d="M291,494C420,357,500,200,500,200V60"/></g></svg>