<svg xmlns="http://www.w3.org/2000/svg" xmlns:xlink="http://www.w3.org/1999/xlink" viewBox="0 0 1000 1000"><defs><style>.a,.c{fill:none;}.b{clip-path:url(#a);}.c{stroke:#000;stroke-linecap:square;stroke-miterlimit:2;stroke-width:68px;}.d{clip-path:url(#b);}.e{clip-path:url(#c);}.f{clip-path:url(#d);}</style><clipPath id="a"><rect class="a" x="340" y="580" width="520" height="479"/></clipPath><clipPath id="b"><path class="a" d="M120,380C340,240,440,60,440,60V20H900V860H-63V380Z"/></clipPath><clipPath id="c"><path class="a" d="M100,700C540,522,760,160,760,160h299v943H100Z"/></clipPath><clipPath id="d"><polygon class="a" points="140 540 140 140 579 140 580 384.13 399.2 540 140 540"/></clipPath></defs><title>name</title><g class="b"><line class="c" x1="860" y1="880" x2="340" y2="880"/></g><path class="c" d="M120,380C340,240,440,60,440,60"/><g class="d"><path class="c" d="M100,700C540,522,760,160,760,160H369"/></g><g class="e"><polyline class="c" points="340 940 340 580 860 580 860 940"/></g><g class="f"><path class="c" d="M492,460c-75.71-76.49-152-132-152-132"/></g></svg>