<svg xmlns="http://www.w3.org/2000/svg" xmlns:xlink="http://www.w3.org/1999/xlink" viewBox="0 0 1000 1000"><defs><style>.a,.b{fill:none;}.b{stroke:#fff;stroke-linecap:square;stroke-miterlimit:2;stroke-width:68px;}.c{clip-path:url(#a);}.d{clip-path:url(#b);}</style><clipPath id="a"><path class="a" d="M80,660C420,500,480,140,480,140L280,60S237,249,80,380L0,439Z"/></clipPath><clipPath id="b"><polygon class="a" points="-112 820 -112 472 384.24 20 620 20 620 820 -112 820"/></clipPath></defs><title>nature</title><path class="b" d="M100,940c78.31-94.43,120-200,120-200"/><path class="b" d="M402,940c-4.63-105.9-22-186-22-186"/><path class="b" d="M639,940c-19-94-59-186-59-186"/><path class="b" d="M900,940c-40-94-120-200-120-200"/><path class="b" d="M920,640C760,542,660,380,660,260"/><path class="b" d="M440,640C600,540,660,380,660,260V60"/><line class="b" x1="500" y1="300" x2="920" y2="300"/><path class="b" d="M850,200c-26.22-50.42-70-100-70-100"/><path class="b" d="M80,380C237,249,280,60,280,60"/><g class="c"><path class="b" d="M398,358c-57-45.35-126-88-126-88"/><path class="b" d="M300,496c-62.19-56-122-103-122-103"/></g><g class="d"><path class="b" d="M80,660C420,500,480,140,480,140H260"/></g></svg>