<svg xmlns="http://www.w3.org/2000/svg" xmlns:xlink="http://www.w3.org/1999/xlink" viewBox="0 0 1000 1000"><defs><style>.a,.b{fill:none;}.b{stroke:#fff;stroke-linecap:square;stroke-miterlimit:2;stroke-width:68px;}.c{clip-path:url(#a);}</style><clipPath id="a"><polygon class="a" points="453 660 453 0 736.04 0 1105 420 1105 660 453 660"/></clipPath></defs><title>next</title><path class="b" d="M580,340c0,320-160,520-320,600"/><path class="b" d="M900,940C740,860,580,660,580,340"/><path class="b" d="M82,780c78.95-57.42,157-131,212-200"/><path class="b" d="M244,248c-45-49-94.34-95.18-144-133"/><path class="b" d="M322,444c80-98,149-246,178-384"/><g class="c"><path class="b" d="M453,220H900c-47,113-72,164-132,240"/></g></svg>