<svg xmlns="http://www.w3.org/2000/svg" xmlns:xlink="http://www.w3.org/1999/xlink" viewBox="0 0 1000 1000"><defs><style>.a,.b{fill:none;}.b{stroke:#000;stroke-linecap:square;stroke-miterlimit:2;stroke-width:68px;}.c{clip-path:url(#a);}.d{clip-path:url(#b);}.e{clip-path:url(#c);}</style><clipPath id="a"><path class="a" d="M340,600C488.26,447.62,560,260,560,260V180H740l380,460v480H220V600Z"/></clipPath><clipPath id="b"><rect class="a" x="20" y="418" width="400" height="732"/></clipPath><clipPath id="c"><rect class="a" x="340" y="-110" width="320" height="270"/></clipPath></defs><title>night</title><path class="b" d="M660,550c-38-45.16-80-80-80-80"/><g class="c"><path class="b" d="M360,940C777,740,860,340,860,340H380s40,400,560,600"/></g><path class="b" d="M340,600C488.26,447.62,560,260,560,260"/><g class="d"><line class="b" x1="220" y1="940" x2="220" y2="417.55"/></g><path class="b" d="M80,600C227,442.16,310,260,310,260"/><line class="b" x1="100" y1="160" x2="900" y2="160"/><g class="e"><line class="b" x1="500" y1="60" x2="500" y2="160"/></g></svg>