<svg xmlns="http://www.w3.org/2000/svg" xmlns:xlink="http://www.w3.org/1999/xlink" viewBox="0 0 1000 1000"><defs><style>.a,.b{fill:none;}.b{stroke:#000;stroke-linecap:square;stroke-miterlimit:2;stroke-width:68px;}.c{clip-path:url(#a);}.d{clip-path:url(#b);}</style><clipPath id="a"><path class="a" d="M80,300c87-68.37,158.56-157.12,200-240V-125h830l9,805H-194V300Z"/></clipPath><clipPath id="b"><rect class="a" x="-119" y="160" width="1238" height="540"/></clipPath></defs><title>nothing</title><line class="b" x1="100" y1="680" x2="900" y2="680"/><line class="b" x1="80" y1="410" x2="920" y2="410"/><path class="b" d="M80,300c87-68.37,158.56-157.12,200-240"/><path class="b" d="M900,940c-32-60-72-111-120-160"/><path class="b" d="M620,940c-10-56-20-110-40-160"/><path class="b" d="M397,940c-4.71-60.82-13-110-27-160"/><path class="b" d="M100,940c51-48,88-98,120-160"/><g class="c"><polyline class="b" points="220 680 220 140 880 140"/></g><g class="d"><line class="b" x1="780" y1="700" x2="780" y2="160"/><line class="b" x1="593" y1="700" x2="593" y2="160"/><line class="b" x1="407" y1="700" x2="407" y2="160"/></g></svg>