<svg xmlns="http://www.w3.org/2000/svg" xmlns:xlink="http://www.w3.org/1999/xlink" viewBox="0 0 1000 1000"><defs><style>.a,.c{fill:none;}.b{clip-path:url(#a);}.c{stroke:#fff;stroke-linecap:square;stroke-miterlimit:2;stroke-width:68px;}.d{clip-path:url(#b);}.e{clip-path:url(#c);}.f{clip-path:url(#d);}</style><clipPath id="a"><rect class="a" x="220" y="580" width="560" height="516"/></clipPath><clipPath id="b"><rect class="a" x="220" y="580" width="560" height="300"/></clipPath><clipPath id="c"><rect class="a" x="100" width="800" height="340"/></clipPath><clipPath id="d"><rect class="a" x="220" y="106" width="560" height="474"/></clipPath></defs><title>number</title><g class="b"><line class="c" x1="780" y1="880" x2="220" y2="880"/></g><g class="d"><line class="c" x1="780" y1="730" x2="220" y2="730"/><line class="c" x1="500" y1="880" x2="500" y2="580"/></g><polyline class="c" points="220 940 220 580 780 580 780 940"/><g class="e"><path class="c" d="M680,300c18.52-27,41.61-72.86,60-120"/><path class="c" d="M320,300c-11.95-30.5-34.06-76.56-60-120"/></g><path class="c" d="M900,600C763,540,620,460,500,340"/><path class="c" d="M100,600c137-60,280-140,400-260"/><line class="c" x1="100" y1="340" x2="900" y2="340"/><g class="f"><line class="c" x1="500" y1="500" x2="500" y2="106"/></g><path class="c" d="M140,121c240,0,494-21,680-61"/></svg>