<svg xmlns="http://www.w3.org/2000/svg" xmlns:xlink="http://www.w3.org/1999/xlink" viewBox="0 0 1000 1000"><defs><style>.a,.b{fill:none;}.b{stroke:#fff;stroke-linecap:square;stroke-miterlimit:2;stroke-width:68px;}.c{clip-path:url(#a);}.d{clip-path:url(#b);}.e{clip-path:url(#c);}.f{clip-path:url(#d);}.g{clip-path:url(#e);}</style><clipPath id="a"><rect class="a" x="-86" y="660" width="1254" height="456"/></clipPath><clipPath id="b"><rect class="a" x="220" y="120" width="560" height="540"/></clipPath><clipPath id="c"><polygon class="a" points="980 940 825.26 940 620 787.6 620 540 980 540 980 940"/></clipPath><clipPath id="d"><rect class="a" x="339.5" y="-82.5" width="320" height="203"/></clipPath><clipPath id="e"><rect class="a" x="220" y="728" width="280" height="199"/></clipPath></defs><title>nurse</title><line class="b" x1="100" y1="120" x2="900" y2="120"/><path class="b" d="M220,940c160.36-7.26,360-50,360-50"/><line class="b" x1="100" y1="660" x2="900" y2="660"/><line class="b" x1="160" y1="520" x2="840" y2="520"/><line class="b" x1="140" y1="380" x2="860" y2="380"/><g class="c"><path class="b" d="M900,940C615,860,540,660,540,660"/><path class="b" d="M100,837c220-41,340-177,340-177"/></g><g class="d"><line class="b" x1="640" y1="660" x2="640" y2="300"/><line class="b" x1="360" y1="300" x2="360" y2="660"/></g><path class="b" d="M860,300C740.33,265.81,640,190,640,190"/><path class="b" d="M140,300c119.67-34.19,220-110,220-110"/><g class="e"><line class="b" x1="700" y1="846.7" x2="820" y2="740"/></g><g class="f"><line class="b" x1="500" y1="60" x2="500" y2="120"/></g><g class="g"><line class="b" x1="360" y1="727.94" x2="360.8" y2="927"/></g></svg>