<svg xmlns="http://www.w3.org/2000/svg" xmlns:xlink="http://www.w3.org/1999/xlink" viewBox="0 0 1000 1000"><defs><style>.a,.b{fill:none;}.b{stroke:#fff;stroke-linecap:square;stroke-miterlimit:2;stroke-width:68px;}.c{clip-path:url(#a);}</style><clipPath id="a"><rect class="a" x="-84" y="380" width="484" height="416"/></clipPath></defs><title>omen</title><path class="b" d="M400,60V420c0,200-20,400-300,520"/><path class="b" d="M600,60V840c0,60,40,100,100,100H800c60,0,91.75-21,100-120l5-60"/><path class="b" d="M900,636c-76.23-68.6-200-136-200-136"/><path class="b" d="M700,380C804.08,267.25,860,180,860,180"/><path class="b" d="M260,360c-47.35-85.24-120-180-120-180"/><g class="c"><path class="b" d="M100,620c145.36-42.26,300-120,300-120"/></g></svg>