<svg xmlns="http://www.w3.org/2000/svg" xmlns:xlink="http://www.w3.org/1999/xlink" viewBox="0 0 1000 1000"><defs><style>.a,.b{fill:none;}.b{stroke:#fff;stroke-linecap:square;stroke-miterlimit:12;stroke-width:68px;}.c{clip-path:url(#a);}.d{clip-path:url(#b);}.e{clip-path:url(#c);}.f{clip-path:url(#d);}.g{clip-path:url(#e);}</style><clipPath id="a"><rect class="a" x="140" y="393" width="360" height="147"/></clipPath><clipPath id="b"><rect class="a" x="140" y="100" width="360" height="147"/></clipPath><clipPath id="c"><rect class="a" x="140" y="100" width="480" height="440"/></clipPath><clipPath id="d"><rect class="a" x="629" y="30" width="503" height="360"/></clipPath><clipPath id="e"><rect class="a" x="20" y="540" width="980" height="360"/></clipPath></defs><title>oversee</title><polyline class="b" points="500 540 140 540 140 100 500 100"/><g class="c"><line class="b" x1="320" y1="540" x2="320" y2="393"/></g><g class="d"><line class="b" x1="320" y1="100" x2="320" y2="247"/></g><g class="e"><polyline class="b" points="140 247 460 247 460 393 140 393"/></g><line class="b" x1="100" y1="900" x2="920" y2="900"/><line class="b" x1="620" y1="460" x2="880" y2="460"/><path class="b" d="M560,340C640.29,223.58,680,60,680,60"/><g class="f"><line class="b" x1="897" y1="210" x2="630" y2="210"/></g><g class="g"><polyline class="b" points="200 900 200 680 820 680 820 900"/><line class="b" x1="407" y1="900" x2="407" y2="680"/><line class="b" x1="614" y1="900" x2="614" y2="680"/></g></svg>