<svg xmlns="http://www.w3.org/2000/svg" xmlns:xlink="http://www.w3.org/1999/xlink" viewBox="0 0 1000 1000"><defs><style>.a,.b{fill:none;}.b{stroke:#000;stroke-linecap:square;stroke-miterlimit:2;stroke-width:68px;}.c{clip-path:url(#a);}.d{clip-path:url(#b);}.e{clip-path:url(#c);}</style><clipPath id="a"><rect class="a" x="100" y="340" width="400" height="737"/></clipPath><clipPath id="b"><path class="a" d="M580,460C679,285,700,60,700,60h419V1098H580Z"/></clipPath><clipPath id="c"><rect class="a" x="420" y="240" width="618" height="868"/></clipPath></defs><title>demolition-man</title><path class="b" d="M100,940V340H500V860c0,40-40,80-80,80"/><path class="b" d="M180,740c34.25-137,40-280,40-280"/><path class="b" d="M380,460c34.49,138,40,280,40,280"/><path class="b" d="M520,260c-54-59-100-160-100-160"/><path class="b" d="M80,260c71-70,100-160,100-160"/><line class="b" x1="300" y1="280" x2="300" y2="60"/><g class="c"><line class="b" x1="300" y1="920" x2="300" y2="340"/></g><path class="b" d="M580,460C679,285,700,60,700,60"/><g class="d"><path class="b" d="M940,940C740,740,660,540,640,240H940"/></g><g class="e"><path class="b" d="M580,940C780,740,860,540,880,240"/></g></svg>
