<svg xmlns="http://www.w3.org/2000/svg" xmlns:xlink="http://www.w3.org/1999/xlink" viewBox="0 0 1000 1000"><defs><style>.a,.b{fill:none;}.b{stroke:#fff;stroke-linecap:square;stroke-miterlimit:2;stroke-width:68px;}.c{clip-path:url(#a);}.d{clip-path:url(#b);}.e{clip-path:url(#c);}.f{clip-path:url(#d);}</style><clipPath id="a"><rect class="a" x="60" y="245" width="680" height="896"/></clipPath><clipPath id="b"><polygon class="a" points="580 1100 580 812.3 458.69 300 -130 300 -143 1100 580 1100"/></clipPath><clipPath id="c"><polygon class="a" points="1000 140 1000 620 713.02 620.01 620 343.01 620 140 1000 140"/></clipPath><clipPath id="d"><rect class="a" x="-239" y="100" width="1491" height="1056"/></clipPath></defs><title>pig</title><line class="b" x1="100" y1="100" x2="900" y2="100"/><g class="c"><path class="b" d="M380,245C520,420,540,580,540,740S477,940,420,940s-80-5-80-5"/></g><g class="d"><path class="b" d="M100,860c160-64,378.42-185,434.71-240"/><path class="b" d="M100,620c185-64,283.62-115.24,388.81-192.12"/></g><g class="e"><path class="b" d="M860,300c-55,64-133.6,134.69-195,177"/></g><g class="f"><path class="b" d="M601,100c26,320,79,549,319,760"/><path class="b" d="M100,380c150-52,328-141,440-280"/></g></svg>