<svg xmlns="http://www.w3.org/2000/svg" xmlns:xlink="http://www.w3.org/1999/xlink" viewBox="0 0 1000 1000"><defs><style>.a,.b{fill:none;}.b{stroke:#000;stroke-linecap:square;stroke-miterlimit:2;stroke-width:68px;}.c{clip-path:url(#a);}.d{clip-path:url(#b);}.e{clip-path:url(#c);}.f{clip-path:url(#d);}</style><clipPath id="a"><polygon class="a" points="420 500 140 264 140 -130 700 -130 700 500 420 500"/></clipPath><clipPath id="b"><polygon class="a" points="389 700 580 499 580 100 0 100 0 700 389 700"/></clipPath><clipPath id="c"><rect class="a" x="60" y="60" width="840" height="793"/></clipPath><clipPath id="d"><rect class="a" y="660" width="831" height="340"/></clipPath></defs><title>poop</title><path class="b" d="M891,919C811,734,718,602,718,602"/><g class="c"><path class="b" d="M285.07,385.58C420,228,520,60,520,60"/></g><g class="d"><path class="b" d="M486,599C340,429,194,300,194,300"/></g><g class="e"><path class="b" d="M260,852.61C540,566,720,280,720,280"/></g><g class="f"><path class="b" d="M140,860c400-22,691-64,691-64"/></g></svg>