<svg xmlns="http://www.w3.org/2000/svg" xmlns:xlink="http://www.w3.org/1999/xlink" viewBox="0 0 1000 1000"><defs><style>.a,.b{fill:none;}.b{stroke:#fff;stroke-linecap:square;stroke-miterlimit:2;stroke-width:68px;}.c{clip-path:url(#a);}.d{clip-path:url(#b);}</style><clipPath id="a"><rect class="a" x="100" y="-84" width="800" height="264"/></clipPath><clipPath id="b"><rect class="a" x="220" y="500" width="560" height="320"/></clipPath></defs><title>prize</title><rect class="b" x="220" y="500" width="560" height="320"/><rect class="b" x="260" y="280" width="480" height="120"/><polyline class="b" points="100 300 100 180 900 180 900 300"/><g class="c"><line class="b" x1="680" y1="180" x2="749" y2="77"/><line class="b" x1="320" y1="180" x2="252" y2="77"/><line class="b" x1="500" y1="60" x2="500" y2="180"/></g><g class="d"><line class="b" x1="780" y1="713" x2="220" y2="713"/><line class="b" x1="780" y1="607" x2="220" y2="607"/></g><path class="b" d="M900,940c-119.85-5.92-240-40-240-40"/><path class="b" d="M100,940c119.85-5.92,240-40,240-40"/></svg>