<svg version="1.2" baseProfile="tiny-ps" xmlns="http://www.w3.org/2000/svg" viewBox="0 0 512 512" width="512" height="512">
	<title>New Project</title>
	<style>
		tspan { white-space:pre }
		.shp0 { fill: #000 } 
	</style>
	<path id="хог" fill-rule="evenodd" class="shp0" d="M217.04 27.69L260.1 15.39L282.66 64.61L479.54 64.61L479.54 158.94L438.52 158.94L438.52 101.52L73.48 101.52L73.48 158.94L32.46 158.94L32.46 64.61L237.54 64.61L217.04 27.69ZM87.84 169.2L87.84 134.33L420.06 134.33L420.06 169.2L87.84 169.2ZM91.94 402.98L91.94 204.06L418.01 204.06L418.01 402.98L91.94 402.98ZM132.95 238.92L132.95 286.09L377 286.09L377 238.92L132.95 238.92ZM132.95 320.95L132.95 368.12L377 368.12L377 320.95L132.95 320.95ZM30.41 472.71L30.41 437.85L481.59 437.85L481.59 472.71L30.41 472.71Z" />
</svg>