<svg xmlns="http://www.w3.org/2000/svg" xmlns:xlink="http://www.w3.org/1999/xlink" viewBox="0 0 1000 1000"><defs><style>.a,.b{fill:none;}.b{stroke:#fff;stroke-linecap:square;stroke-miterlimit:2;stroke-width:68px;}.c{clip-path:url(#a);}</style><clipPath id="a"><rect class="a" x="141" y="471.9" width="460" height="468.1"/></clipPath></defs><title>psychopath</title><polyline class="b" points="541 266.59 540 522.35 140 522.35 141 264.25"/><polyline class="b" points="60 290.06 60 100 940 100 940 290.06"/><path class="b" d="M219,427.32C307,365,394,279,461,195"/><path class="b" d="M461,427.32C380,343,300,260,221,195"/><line class="b" x1="479" y1="317.04" x2="503" y2="340.5"/><line class="b" x1="347" y1="441.4" x2="371" y2="464.86"/><line class="b" x1="189" y1="293.58" x2="215" y2="314.69"/><line class="b" x1="329.92" y1="159.95" x2="353.92" y2="183.41"/><path class="b" d="M141,615V784c0,61-6,112.63,182,112.63,176,0,202-23.46,218-91.51"/><g class="c"><path class="b" d="M479,662c-106,44.58-239.5,77.83-338,82.12"/></g><path class="b" d="M640,360c100-49,159-139,159-139"/><path class="b" d="M640,620c132-67.3,230-180,230-180"/><path class="b" d="M940,660S809.84,808.07,640,880"/></svg>