<svg xmlns="http://www.w3.org/2000/svg" xmlns:xlink="http://www.w3.org/1999/xlink" viewBox="0 0 1000 1000"><defs><style>.a,.b{fill:none;}.b{stroke:#000;stroke-linecap:square;stroke-miterlimit:2;stroke-width:68px;}.c{clip-path:url(#a);}.d{clip-path:url(#b);}.e{clip-path:url(#c);}</style><clipPath id="a"><rect class="a" y="529" width="460" height="492"/></clipPath><clipPath id="b"><rect class="a" x="325" y="139" width="353" height="240"/></clipPath><clipPath id="c"><rect class="a" x="165" y="-39" width="687" height="178"/></clipPath></defs><title>righteousness</title><line class="b" x1="760" y1="481" x2="860" y2="579"/><path class="b" d="M820,739C684,839,550,907,460,939"/><path class="b" d="M580,499c10,192,150,436,280,440,66,0,88-24,96-132"/><g class="c"><path class="b" d="M260,529V819c0,106-22,122-120,120"/></g><path class="b" d="M40,799c90,0,250-2,420-40"/><line class="b" x1="41" y1="661" x2="961" y2="661"/><path class="b" d="M60,539c143,0,275-16,360-38"/><g class="d"><line class="b" x1="501" y1="139" x2="501" y2="379"/></g><line class="b" x1="39" y1="379" x2="961" y2="379"/><line class="b" x1="100" y1="261" x2="900" y2="261"/><line class="b" x1="60" y1="139" x2="940" y2="139"/><g class="e"><line class="b" x1="300" y1="59" x2="340" y2="139"/><line class="b" x1="700" y1="59" x2="660" y2="139"/></g></svg>