<svg xmlns="http://www.w3.org/2000/svg" xmlns:xlink="http://www.w3.org/1999/xlink" viewBox="0 0 1000 1000"><defs><style>.a,.b{fill:none;}.b{stroke:#000;stroke-linecap:square;stroke-miterlimit:2;stroke-width:68px;}.c{clip-path:url(#a);}.d{clip-path:url(#b);}.e{clip-path:url(#c);}.f{clip-path:url(#d);}</style><clipPath id="a"><rect class="a" x="400" y="180" width="420" height="140"/></clipPath><clipPath id="b"><rect class="a" x="340" y="-120" width="560" height="300"/></clipPath><clipPath id="c"><rect class="a" x="400" y="320" width="440" height="460"/></clipPath><clipPath id="d"><rect class="a" x="-132" y="610" width="364" height="497"/></clipPath></defs><title>road</title><path class="b" d="M60,481H220V700c0,160,120,220,400,220,200,0,320-10,320-10"/><path class="b" d="M232,245c-31.53-44.09-89.82-107.31-132-145"/><line class="b" x1="340" y1="180" x2="900" y2="180"/><rect class="b" x="400" y="320" width="440" height="460"/><g class="c"><line class="b" x1="630" y1="180" x2="578" y2="320"/></g><g class="d"><line class="b" x1="780" y1="60" x2="700" y2="180"/><line class="b" x1="540" y1="180" x2="460" y2="60"/></g><g class="e"><line class="b" x1="828" y1="474" x2="428" y2="474"/><line class="b" x1="820" y1="627" x2="420" y2="627"/></g><g class="f"><line class="b" x1="232" y1="780" x2="60" y2="920"/></g></svg>