<svg xmlns="http://www.w3.org/2000/svg" xmlns:xlink="http://www.w3.org/1999/xlink" viewBox="0 0 1000 1000"><defs><style>.a,.b{fill:none;}.b{stroke:#fff;stroke-linecap:square;stroke-miterlimit:2;stroke-width:68px;}.c{clip-path:url(#a);}.d{clip-path:url(#b);}.e{clip-path:url(#c);}</style><clipPath id="a"><rect class="a" x="180" y="460" width="480" height="375"/></clipPath><clipPath id="b"><rect class="a" x="140" y="660" width="546" height="320"/></clipPath><clipPath id="c"><rect class="a" x="340" y="-92" width="320" height="232"/></clipPath></defs><title>rocket</title><line class="b" x1="100" y1="140" x2="900" y2="140"/><polyline class="b" points="180 220 180 460 820 460 820 220"/><path class="b" d="M660,380C533.63,310.5,360,240,360,240"/><path class="b" d="M340,380c160-49,300-160,300-160"/><path class="b" d="M140,940V620H860V860c0,40-40,80-80,80H740"/><path class="b" d="M714,845c-31.33-70.87-71-130-71-130"/><g class="c"><path class="b" d="M363,835c84-200,137-375,137-375"/></g><g class="d"><path class="b" d="M280,840c239.84-8.86,406-53,406-53"/></g><g class="e"><line class="b" x1="500" y1="60" x2="500" y2="140"/></g></svg>