<svg xmlns="http://www.w3.org/2000/svg" xmlns:xlink="http://www.w3.org/1999/xlink" viewBox="0 0 1000 1000"><defs><style>.a,.b{fill:none;}.b{stroke:#fff;stroke-linecap:square;stroke-miterlimit:2;stroke-width:68px;}.c{clip-path:url(#a);}.d{clip-path:url(#b);}.e{clip-path:url(#c);}.f{clip-path:url(#d);}</style><clipPath id="a"><rect class="a" x="220" y="100" width="579" height="400"/></clipPath><clipPath id="b"><rect class="a" y="500" width="1185" height="676"/></clipPath><clipPath id="c"><rect class="a" x="-94" y="-147" width="1094" height="1066"/></clipPath><clipPath id="d"><polygon class="a" points="1000 860 702.04 860 540 687.58 540 420 1000 420 1000 860"/></clipPath></defs><title>good</title><path class="b" d="M100,940c131-19,280-56,400-99"/><g class="c"><line class="b" x1="800" y1="300" x2="220" y2="300"/></g><g class="d"><path class="b" d="M900,940C700,860,523,740,460,500"/></g><g class="e"><polyline class="b" points="220 918.67 220 100 800 100 799 500 220 500"/></g><g class="f"><path class="b" d="M609,761c101-72,191-161,191-161"/></g></svg>
