<svg xmlns="http://www.w3.org/2000/svg" xmlns:xlink="http://www.w3.org/1999/xlink" viewBox="0 0 1000 1000"><defs><style>.a,.b{fill:none;}.b{stroke:#fff;stroke-linecap:square;stroke-miterlimit:2;stroke-width:68px;}.c{clip-path:url(#a);}.d{clip-path:url(#b);}.e{clip-path:url(#c);}</style><clipPath id="a"><rect class="a" x="-120" y="60" width="1020" height="360"/></clipPath><clipPath id="b"><rect class="a" x="357" y="260" width="643" height="360"/></clipPath><clipPath id="c"><rect class="a" x="202" y="460" width="879" height="642"/></clipPath></defs><title>sake</title><path class="b" d="M80,720C420,492,500,60,500,60"/><g class="c"><path class="b" d="M100,220H760c-20,120-40,200-40,200"/></g><g class="d"><path class="b" d="M357,420H820c-15,92-44,200-44,200"/></g><g class="e"><path class="b" d="M202,620H900c-15,280-40,320-100,320-40,0-100-6-100-6"/></g><path class="b" d="M300,140c-29-40-70-80-70-80"/><path class="b" d="M180,940c58.58-96.65,80-220,80-220"/><path class="b" d="M417,924c-1.75-104-17-204-17-204"/><path class="b" d="M597,877c-17-90-39-157-39-157"/><path class="b" d="M750,798a839.17,839.17,0,0,0-44-78"/></svg>