<svg xmlns="http://www.w3.org/2000/svg" xmlns:xlink="http://www.w3.org/1999/xlink" viewBox="0 0 1000 1000"><defs><style>.a,.b{fill:none;}.b{stroke:#000;stroke-linecap:square;stroke-miterlimit:2;stroke-width:68px;}.c{clip-path:url(#a);}.d{clip-path:url(#b);}.e{clip-path:url(#c);}</style><clipPath id="a"><rect class="a" x="100" y="79" width="800" height="341"/></clipPath><clipPath id="b"><rect class="a" x="260" y="420" width="480" height="460"/></clipPath><clipPath id="c"><rect class="a" x="260" y="740" width="480" height="275"/></clipPath></defs><title>satellite</title><line class="b" x1="260" y1="940" x2="260" y2="740"/><line class="b" x1="740" y1="940" x2="740" y2="740"/><line class="b" x1="260" y1="420" x2="740" y2="420"/><line class="b" x1="240" y1="620" x2="760" y2="620"/><path class="b" d="M260,140c280-16,480-80,480-80"/><g class="c"><path class="b" d="M620,420c80-135,120-240,120-240"/><path class="b" d="M523,340c-13-70-43-140-43-140"/><path class="b" d="M328,340c-18-52-43-111-43-111"/></g><g class="d"><line class="b" x1="500" y1="880" x2="500" y2="420"/></g><g class="e"><line class="b" x1="260" y1="880" x2="740" y2="880"/></g></svg>