<svg xmlns="http://www.w3.org/2000/svg" xmlns:xlink="http://www.w3.org/1999/xlink" viewBox="0 0 1000 1000"><defs><style>.a,.b{fill:none;}.b{stroke:#fff;stroke-linecap:square;stroke-miterlimit:2;stroke-width:68px;}.c{clip-path:url(#a);}.d{clip-path:url(#b);}</style><clipPath id="a"><rect class="a" x="60" y="-125" width="880" height="365"/></clipPath><clipPath id="b"><rect class="a" x="435" y="240" width="678" height="580"/></clipPath></defs><title>scroll</title><path class="b" d="M100,660C450,436,500,58,500,58"/><line class="b" x1="140" y1="240" x2="860" y2="240"/><g class="c"><path class="b" d="M650,240C711.53,158.86,750,80,750,80"/><path class="b" d="M310,240c-31.73-90.22-75-160-75-160"/></g><g class="d"><path class="b" d="M900,660C550,436,500,60,500,60"/></g><line class="b" x1="100" y1="420" x2="900" y2="420"/><path class="b" d="M300,580H680V740H260V860c0,40,19,80,280,80,262,0,268.88-40.21,273-80l6-58"/></svg>