<svg xmlns="http://www.w3.org/2000/svg" xmlns:xlink="http://www.w3.org/1999/xlink" viewBox="0 0 1000 1000"><defs><style>.a,.c{fill:none;}.b{clip-path:url(#a);}.c{stroke:#fff;stroke-linecap:square;stroke-miterlimit:2;stroke-width:68px;}.d{clip-path:url(#b);}.e{clip-path:url(#c);}.f{clip-path:url(#d);}</style><clipPath id="a"><path class="a" d="M740,940V452H260c0,360-40,397-120,488Z"/></clipPath><clipPath id="b"><rect class="a" x="-86" y="452" width="1154" height="698"/></clipPath><clipPath id="c"><rect class="a" x="-86" y="160" width="1176" height="467"/></clipPath><clipPath id="d"><rect class="a" x="340" y="-108" width="320" height="268"/></clipPath></defs><title>stilts</title><g class="b"><line class="c" x1="740" y1="760" x2="239" y2="760"/><line class="c" x1="740" y1="580" x2="258" y2="580"/></g><g class="d"><path class="c" d="M140,940c80-91,120-128,120-488"/><line class="c" x1="740" y1="452" x2="740" y2="980"/></g><g class="e"><path class="c" d="M100,480c212-25,480-100,640-320"/><path class="c" d="M900,480C688,455,420,380,260,160"/></g><line class="c" x1="900" y1="160" x2="100" y2="160"/><g class="f"><line class="c" x1="500" y1="60" x2="500" y2="160"/></g></svg>
