<svg xmlns="http://www.w3.org/2000/svg" xmlns:xlink="http://www.w3.org/1999/xlink" viewBox="0 0 1000 1000"><defs><style>.a,.c{fill:none;}.b{clip-path:url(#a);}.c{stroke:#000;stroke-linecap:square;stroke-miterlimit:2;stroke-width:68px;}.d{clip-path:url(#b);}.e{clip-path:url(#c);}.f{clip-path:url(#d);}</style><clipPath id="a"><polygon class="a" points="-110 1083 -118 20 748.44 20 1032.2 340 1008 1083 -110 1083"/></clipPath><clipPath id="b"><rect class="a" y="-233" width="1000" height="673"/></clipPath><clipPath id="c"><rect class="a" y="440" width="1225" height="745"/></clipPath><clipPath id="d"><polygon class="a" points="200 301 200 581 20 740 20 1105 980 1105 980 300 200 301"/></clipPath></defs><title>skin</title><g class="b"><path class="c" d="M81,940c99-200,119-440,119-559V200H900c-40,85-58.56,102.06-80,133"/></g><g class="d"><line class="c" x1="540" y1="60" x2="540" y2="460"/></g><g class="e"><path class="c" d="M900,940C620,840,408,680,320,440"/></g><g class="f"><path class="c" d="M200,440H820C678,670,497,832,220,940"/></g></svg>