<svg xmlns="http://www.w3.org/2000/svg" xmlns:xlink="http://www.w3.org/1999/xlink" viewBox="0 0 1000 1000"><defs><style>.a,.b{fill:none;}.b{stroke:#fff;stroke-linecap:square;stroke-miterlimit:2;stroke-width:68px;}.c{clip-path:url(#a);}.d{clip-path:url(#b);}</style><clipPath id="a"><path class="a" d="M140,940C594,820,820,480,820,480L680,339S510,600,140,740H0V160H1080v920H140Z"/></clipPath><clipPath id="b"><polygon class="a" points="180 -95 180 300 296 415 420 500 700 500 700 -95 180 -95"/></clipPath></defs><title>slice</title><path class="b" d="M140,940C594,820,820,480,820,480"/><path class="b" d="M140,740C510,600,680,339,680,339"/><line class="b" x1="100" y1="160" x2="900" y2="160"/><g class="c"><path class="b" d="M900,940C580,780,605,653,205,340"/></g><g class="d"><path class="b" d="M296,415C417.22,311.81,500,180,500,180V60"/></g></svg>