<svg xmlns="http://www.w3.org/2000/svg" xmlns:xlink="http://www.w3.org/1999/xlink" viewBox="0 0 1000 1000"><defs><style>.a,.b{fill:none;}.b{stroke:#fff;stroke-linecap:square;stroke-miterlimit:2;stroke-width:68px;}.c{clip-path:url(#a);}.d{clip-path:url(#b);}.e{clip-path:url(#c);}</style><clipPath id="a"><rect class="a" x="-251" y="400" width="1484" height="775"/></clipPath><clipPath id="b"><polygon class="a" points="1102 -191 0 -191 0 260 380 260 554 401 1107 400 1102 -191"/></clipPath><clipPath id="c"><rect class="a" width="1000" height="400"/></clipPath></defs><title>soldier</title><path class="b" d="M100,400H920c-60,91-111.6,159.65-180,220"/><g class="c"><path class="b" d="M100,820c120-62,283-160,420-420"/><path class="b" d="M340,940h60q120,0,120-120V400"/></g><g class="d"><path class="b" d="M200,100H840C727,206,559.73,316.35,496,354"/></g><g class="e"><path class="b" d="M340,240c76.33,51.86,144.31,101.88,220,170"/></g></svg>
