<svg xmlns="http://www.w3.org/2000/svg" xmlns:xlink="http://www.w3.org/1999/xlink" viewBox="0 0 1000 1000"><defs><style>.a,.c{fill:none;}.b{clip-path:url(#a);}.c{stroke:#000;stroke-linecap:square;stroke-miterlimit:2;stroke-width:68px;}.d{clip-path:url(#b);}.e{clip-path:url(#c);}.f{clip-path:url(#d);}</style><clipPath id="a"><path class="a" d="M140,740c201.36-76.52,300-240,300-240V420H620L900,780h156v291H-65V740Z"/></clipPath><clipPath id="b"><path class="a" d="M118.5,249.5C482,248.09,798,221,798,221h258V660H-80V249Z"/></clipPath><clipPath id="c"><rect class="a" x="-107" y="60" width="905" height="360"/></clipPath><clipPath id="d"><rect class="a" x="140" y="-96" width="440" height="343"/></clipPath></defs><title>spider</title><g class="b"><path class="c" d="M100,940c480-57,640-340,640-340H260S420,883,900,940"/></g><path class="c" d="M140,740c201.36-76.52,300-240,300-240"/><path class="c" d="M860,279c-99-99-220-179-220-179"/><g class="d"><path class="c" d="M100,540c200-62,280-160,300-296"/><path class="c" d="M599.08,234.47,599,380c0,62,21,80,141,80s142-20,147-80"/></g><g class="e"><path class="c" d="M118.5,249.5C482,248.09,798,221,798,221"/></g><g class="f"><path class="c" d="M255,248C356.52,161.52,420,60,420,60"/></g></svg>