<svg xmlns="http://www.w3.org/2000/svg" xmlns:xlink="http://www.w3.org/1999/xlink" viewBox="0 0 1000 1000"><defs><style>.a,.b{fill:none;}.b{stroke:#fff;stroke-linecap:square;stroke-miterlimit:2;stroke-width:68px;}.c{clip-path:url(#a);}.d{clip-path:url(#b);}.e{clip-path:url(#c);}</style><clipPath id="a"><rect class="a" x="280" y="460" width="300" height="133"/></clipPath><clipPath id="b"><rect class="a" x="280" y="727" width="290" height="133"/></clipPath><clipPath id="c"><rect class="a" x="280" y="460" width="475" height="475"/></clipPath></defs><title>storehouse</title><line class="b" x1="100" y1="130" x2="900" y2="130"/><path class="b" d="M60,940c80-120,100-309,100-480V320H880"/><line class="b" x1="340" y1="200" x2="340" y2="60"/><line class="b" x1="660" y1="200" x2="660" y2="60"/><line class="b" x1="860" y1="240" x2="800" y2="215"/><path class="b" d="M680,290c0,360,152,650,200,650s51-40,60-160"/><path class="b" d="M601,940C805.21,742.46,870,460,870,460"/><polyline class="b" points="280 940 280 460 580 460"/><line class="b" x1="280" y1="860" x2="580" y2="860"/><g class="c"><line class="b" x1="449" y1="593" x2="449" y2="460"/></g><g class="d"><line class="b" x1="450" y1="727" x2="450" y2="860"/></g><g class="e"><polyline class="b" points="280 593 570 593 570 727 280 727"/></g></svg>