<svg xmlns="http://www.w3.org/2000/svg" xmlns:xlink="http://www.w3.org/1999/xlink" viewBox="0 0 1000 1000"><defs><style>.a,.b{fill:none;}.b{stroke:#000;stroke-linecap:square;stroke-miterlimit:2;stroke-width:68px;}.c{clip-path:url(#a);}.d{clip-path:url(#b);}.e{clip-path:url(#c);}</style><clipPath id="a"><polygon class="a" points="620 900 -164 900 -164 140 329.91 140 618.98 379.63 620 900"/></clipPath><clipPath id="b"><polygon class="a" points="1000 700 839.4 700 540 390.85 540 140 1000 140 1000 700"/></clipPath><clipPath id="c"><polygon class="a" points="0 220 380 220 380 482.01 199.54 660 0 660 0 220"/></clipPath></defs><title>tent</title><path class="b" d="M240,281H500c80,200,280,368,440,459"/><g class="c"><path class="b" d="M500,281C420,481,220,649,60,740"/></g><g class="d"><path class="b" d="M716,321c-30.51,47.68-64.13,88.8-110,138"/><path class="b" d="M846,463c-32,50-52.89,79.81-106,135"/></g><g class="e"><path class="b" d="M168,401c41.27,41.79,100.83,105,138,154"/></g></svg>