<svg xmlns="http://www.w3.org/2000/svg" xmlns:xlink="http://www.w3.org/1999/xlink" viewBox="0 0 1000 1000"><defs><style>.a,.b{fill:none;}.b{stroke:#fff;stroke-linecap:square;stroke-miterlimit:2;stroke-width:68px;}.c{clip-path:url(#a);}.d{clip-path:url(#b);}.e{clip-path:url(#c);}.f{clip-path:url(#d);}.g{clip-path:url(#e);}</style><clipPath id="a"><polygon class="a" points="388.64 380 218 220 220 -116 660 -116 660 380 388.64 380"/></clipPath><clipPath id="b"><polygon class="a" points="355.51 540 540 367 540 60 60 60 60 539 355.51 540"/></clipPath><clipPath id="c"><rect class="a" x="220" width="640" height="554"/></clipPath><clipPath id="d"><rect class="a" x="-77" y="379" width="924" height="320"/></clipPath><clipPath id="e"><rect class="a" x="340" y="546" width="320" height="549"/></clipPath></defs><title>thread</title><path class="b" d="M900,602C841,497.63,740,380,740,380"/><path class="b" d="M900,900C790,820,700,672,700,672"/><path class="b" d="M119,900c120-87,198-219,198-219"/><g class="c"><path class="b" d="M305,302C418,169,490,60,490,60"/></g><g class="d"><path class="b" d="M455,445.54C331,319,209,220,209,220"/></g><g class="e"><path class="b" d="M340,554.09C553,362,700,180,700,180"/></g><g class="f"><path class="b" d="M119,560c421-6,728-41,728-41"/></g><g class="g"><line class="b" x1="500" y1="940" x2="500" y2="546"/></g></svg>