<svg xmlns="http://www.w3.org/2000/svg" xmlns:xlink="http://www.w3.org/1999/xlink" viewBox="0 0 1000 1000"><defs><style>.a,.c{fill:none;}.b{clip-path:url(#a);}.c{stroke:#000;stroke-linecap:square;stroke-miterlimit:2;stroke-width:68px;}.d{clip-path:url(#b);}.e{clip-path:url(#c);}</style><clipPath id="a"><polygon class="a" points="-118 1118 -118 140 799.25 140 1000 355.54 1000 1118 -118 1118"/></clipPath><clipPath id="b"><rect class="a" x="500" y="-96" width="593" height="396"/></clipPath><clipPath id="c"><rect class="a" x="180" y="-147" width="720" height="447"/></clipPath></defs><title>tiger</title><g class="b"><path class="c" d="M80,940C181,740,180,620,180,300H920c-26,66-51.46,110.47-85,160"/></g><line class="c" x1="260" y1="620" x2="900" y2="580"/><path class="c" d="M500,380V820q0,120,120,120H780c80,0,111-60,120-140"/><g class="d"><line class="c" x1="820" y1="150" x2="500" y2="150"/></g><g class="e"><line class="c" x1="500" y1="60" x2="500" y2="300"/></g></svg>