<svg xmlns="http://www.w3.org/2000/svg" xmlns:xlink="http://www.w3.org/1999/xlink" viewBox="0 0 1000 1000"><defs><style>.a,.b{fill:none;}.b{stroke:#000;stroke-linecap:square;stroke-miterlimit:2;stroke-width:68px;}.c{clip-path:url(#a);}.d{clip-path:url(#b);}.e{clip-path:url(#c);}</style><clipPath id="a"><rect class="a" x="140" y="740" width="720" height="277"/></clipPath><clipPath id="b"><rect class="a" x="100" y="-93" width="600" height="373"/></clipPath><clipPath id="c"><rect class="a" x="510" width="470" height="280"/></clipPath></defs><title>tooth</title><line class="b" x1="140" y1="940" x2="140" y2="360"/><line class="b" x1="100" y1="280" x2="900" y2="280"/><line class="b" x1="860" y1="940" x2="860" y2="360"/><line class="b" x1="500" y1="800" x2="500" y2="360"/><line class="b" x1="760" y1="580" x2="240" y2="580"/><path class="b" d="M740,780C579.76,680.39,500,580,500,580"/><path class="b" d="M260,780c160.24-99.61,240-200,240-200"/><path class="b" d="M620,490c50-57.72,80-110,80-110"/><path class="b" d="M380,490c-50-57.72-80-110-80-110"/><g class="c"><line class="b" x1="860" y1="880" x2="140" y2="880"/></g><g class="d"><line class="b" x1="510" y1="280" x2="510" y2="60"/><line class="b" x1="260" y1="280" x2="260" y2="100"/></g><g class="e"><line class="b" x1="510" y1="140" x2="820" y2="140"/></g></svg>