<svg xmlns="http://www.w3.org/2000/svg" xmlns:xlink="http://www.w3.org/1999/xlink" viewBox="0 0 1000 1000"><defs><style>.a,.b{fill:none;}.b{stroke:#fff;stroke-linecap:square;stroke-miterlimit:2;stroke-width:68px;}.c{clip-path:url(#a);}.d{clip-path:url(#b);}.e{clip-path:url(#c);}</style><clipPath id="a"><rect class="a" x="140" y="580" width="720" height="240"/></clipPath><clipPath id="b"><path class="a" d="M100,280C232,199,320,60,320,60V-92h787V1087H-90V280Z"/></clipPath><clipPath id="c"><rect class="a" x="180" y="220" width="640" height="240"/></clipPath></defs><title>turtle</title><polyline class="b" points="140 860 140 580 860 580 860 820 140 820"/><g class="c"><line class="b" x1="860" y1="700" x2="140" y2="700"/></g><path class="b" d="M100,280C232,199,320,60,320,60"/><g class="d"><rect class="b" x="180" y="220" width="640" height="240"/><path class="b" d="M300,100H620c-40,60-120,120-120,120V860c0,59,20,80,220,80s212-19,220-80"/></g><g class="e"><line class="b" x1="820" y1="340" x2="180" y2="340"/></g></svg>