<svg xmlns="http://www.w3.org/2000/svg" xmlns:xlink="http://www.w3.org/1999/xlink" viewBox="0 0 1000 1000"><defs><style>.a,.b,.g{fill:none;}.b,.g{stroke:#000;stroke-linecap:square;stroke-width:68px;}.b{stroke-miterlimit:2;}.c{clip-path:url(#a);}.d{clip-path:url(#b);}.e{clip-path:url(#c);}.f{clip-path:url(#d);}.g{stroke-miterlimit:10;}</style><clipPath id="a"><rect class="a" y="541" width="1000" height="459"/></clipPath><clipPath id="b"><rect class="a" x="220" y="61" width="560" height="240"/></clipPath><clipPath id="c"><rect class="a" x="141" y="300" width="720" height="241"/></clipPath><clipPath id="d"><polygon class="a" points="180 900 820 900 820 737 500 417 180 737 180 900"/></clipPath></defs><title>violence</title><line class="b" x1="180" y1="421" x2="820" y2="421"/><line class="b" x1="121" y1="541" x2="881" y2="541"/><path class="b" d="M611,820c30.78,23,126.91,82,169,101"/><path class="b" d="M389,820c-30.78,23-126.91,82-169,101"/><g class="c"><path class="b" d="M620,540C741,670,853,716,941,740"/><path class="b" d="M381,541C260,671,148,717,60,741"/></g><g class="d"><line class="b" x1="220" y1="181" x2="780" y2="181"/></g><g class="e"><line class="b" x1="364" y1="301" x2="364" y2="541"/><line class="b" x1="635" y1="301" x2="635" y2="541"/></g><g class="f"><line class="b" x1="295" y1="623" x2="380" y2="700"/><line class="b" x1="705" y1="623" x2="620" y2="700"/></g><path class="b" d="M500,660V861c0,57-26,79-80,79"/><rect class="g" x="220" y="61" width="560" height="239"/></svg>