<svg xmlns="http://www.w3.org/2000/svg" xmlns:xlink="http://www.w3.org/1999/xlink" viewBox="0 0 1000 1000"><defs><style>.a,.b{fill:none;}.b{stroke:#fff;stroke-linecap:square;stroke-miterlimit:2;stroke-width:68px;}.c{clip-path:url(#a);}.d{clip-path:url(#b);}.e{clip-path:url(#c);}</style><clipPath id="a"><polygon class="a" points="1119 1099 140 1099 140 20 820 20 1119 420 1119 1099"/></clipPath><clipPath id="b"><polygon class="a" points="260 1070 260 340 800 340 1070 740 1070 1070 260 1070"/></clipPath><clipPath id="c"><rect class="a" x="260" y="460" width="810" height="610"/></clipPath></defs><title>wave</title><path class="b" d="M80,940c82.13-145.82,120-300,120-300"/><path class="b" d="M220,440C153.81,384.51,80,340,80,340"/><path class="b" d="M260,180C208.44,128.44,140,80,140,80"/><g class="c"><path class="b" d="M280,940C390,740,390,500,390,180H920c-31,85-71,160-71,160"/></g><line class="b" x1="640" y1="60" x2="640" y2="460"/><g class="d"><path class="b" d="M420,940C780,740,860,460,860,460H426"/></g><g class="e"><path class="b" d="M460,460s80,320,480,480"/></g></svg>