<svg version="1.2" baseProfile="tiny-ps" xmlns="http://www.w3.org/2000/svg" viewBox="0 0 512 512" width="512" height="512">
	<title>New Project</title>
	<style>
		tspan { white-space:pre }
		.shp0 { fill: #000 } 
	</style>
	<path id="麦" fill-rule="evenodd" class="shp0" d="M46.82 97.42L46.82 60.5L235.49 60.5L235.49 19.49L276.51 19.49L276.51 60.5L463.13 60.5L463.13 97.42L276.51 97.42L276.51 140.48L444.67 140.48L444.67 177.4L276.51 177.4L276.51 218.41L489.79 218.41L489.79 255.33L210.37 255.33L184.22 290.19L418.01 290.19L418.01 325.05C389.3 360.6 355.12 390 315.47 413.24C370.16 429.64 428.95 441.27 491.84 448.1L471.33 489.12C392.04 476.81 323.68 459.04 266.25 435.8C204.73 460.41 132.95 478.86 50.92 491.17L26.31 452.2C100.14 441.27 163.03 427.59 214.98 411.19C183.54 392.05 156.88 367.44 135 337.36C106.29 360.6 80.32 377.69 57.07 388.63L30.41 353.77C81.98 331.5 125 298.69 159.49 255.33L20.16 255.33L20.16 218.41L235.49 218.41L235.49 177.4L63.23 177.4L63.23 140.48L235.49 140.48L235.49 97.42L46.82 97.42ZM358.54 327.11L173.97 327.11C197.21 354.45 226.61 376.32 262.15 392.73C303.17 373.59 335.3 351.71 358.54 327.11Z" />
</svg>