<svg xmlns="http://www.w3.org/2000/svg" xmlns:xlink="http://www.w3.org/1999/xlink" viewBox="0 0 1000 1000"><defs><style>.a,.b{fill:none;}.b{stroke:#000;stroke-linecap:square;stroke-miterlimit:2;stroke-width:68px;}.c{clip-path:url(#a);}.d{clip-path:url(#b);}</style><clipPath id="a"><rect class="a" x="100" y="740" width="587" height="287"/></clipPath><clipPath id="b"><rect class="a" x="340" y="270" width="280" height="610"/></clipPath></defs><title>wind</title><path class="b" d="M80,940c99-200,100-480,100-840H800c0,440,34,840,100,840,22,0,40-160,40-160"/><rect class="b" x="300" y="420" width="360" height="240"/><path class="b" d="M300,280c200,0,360-40,360-40"/><path class="b" d="M721,920c-25.84-86.7-65-160-65-160"/><g class="c"><path class="b" d="M260,900c254-14,435-56,435-56"/></g><g class="d"><line class="b" x1="480" y1="880" x2="477.5" y2="270.14"/></g></svg>