<svg xmlns="http://www.w3.org/2000/svg" xmlns:xlink="http://www.w3.org/1999/xlink" viewBox="0 0 1000 1000"><defs><style>.a,.b{fill:none;}.b{stroke:#000;stroke-linecap:square;stroke-miterlimit:2;stroke-width:68px;}.c{clip-path:url(#a);}.d{clip-path:url(#b);}.e{clip-path:url(#c);}</style><clipPath id="a"><rect class="a" x="-84" y="620" width="1164" height="437"/></clipPath><clipPath id="b"><polygon class="a" points="980 500 980 900 780 901.11 620 790.53 620 500 980 500"/></clipPath><clipPath id="c"><rect class="a" x="180.5" y="-115.5" width="640" height="435"/></clipPath></defs><title>zombie</title><line class="b" x1="180" y1="320" x2="820" y2="320"/><line class="b" x1="220" y1="160" x2="780" y2="160"/><line class="b" x1="500" y1="940" x2="500" y2="620"/><rect class="b" x="220" y="460" width="560" height="160"/><g class="c"><path class="b" d="M500,620C420,740,271,820,180,860"/><path class="b" d="M860,920C700,866,580,780,500,620"/></g><g class="d"><path class="b" d="M680,832c49.23-46.15,80.65-81.7,119-132"/></g><g class="e"><line class="b" x1="500" y1="60" x2="500" y2="320"/></g></svg>